<svg xmlns="http://www.w3.org/2000/svg" xmlns:xlink="http://www.w3.org/1999/xlink" width="600" height="400" viewBox="0 0 2400 1600">
<defs>
  <clipPath id="clip590">
    <rect x="0" y="0" width="2400" height="1600"></rect>
  </clipPath>
</defs>
<path clip-path="url(#clip590)" d="
M0 1600 L2400 1600 L2400 0 L0 0  Z
  " fill="#ffffff" fill-rule="evenodd" fill-opacity="1"></path>
<defs>
  <clipPath id="clip591">
    <rect x="480" y="0" width="1681" height="1600"></rect>
  </clipPath>
</defs>
<path clip-path="url(#clip590)" d="
M287.366 1423.18 L2352.76 1423.18 L2352.76 123.472 L287.366 123.472  Z
  " fill="#ffffff" fill-rule="evenodd" fill-opacity="1"></path>
<defs>
  <clipPath id="clip592">
    <rect x="287" y="123" width="2066" height="1301"></rect>
  </clipPath>
</defs>
<polyline clip-path="url(#clip592)" style="stroke:#000000; stroke-linecap:butt; stroke-linejoin:round; stroke-width:2; stroke-opacity:0.1; fill:none" points="
  344.846,1423.18 344.846,123.472 
  "></polyline>
<polyline clip-path="url(#clip592)" style="stroke:#000000; stroke-linecap:butt; stroke-linejoin:round; stroke-width:2; stroke-opacity:0.1; fill:none" points="
  832.21,1423.18 832.21,123.472 
  "></polyline>
<polyline clip-path="url(#clip592)" style="stroke:#000000; stroke-linecap:butt; stroke-linejoin:round; stroke-width:2; stroke-opacity:0.1; fill:none" points="
  1319.57,1423.18 1319.57,123.472 
  "></polyline>
<polyline clip-path="url(#clip592)" style="stroke:#000000; stroke-linecap:butt; stroke-linejoin:round; stroke-width:2; stroke-opacity:0.1; fill:none" points="
  1806.94,1423.18 1806.94,123.472 
  "></polyline>
<polyline clip-path="url(#clip592)" style="stroke:#000000; stroke-linecap:butt; stroke-linejoin:round; stroke-width:2; stroke-opacity:0.1; fill:none" points="
  2294.3,1423.18 2294.3,123.472 
  "></polyline>
<polyline clip-path="url(#clip590)" style="stroke:#000000; stroke-linecap:butt; stroke-linejoin:round; stroke-width:4; stroke-opacity:1; fill:none" points="
  287.366,1423.18 2352.76,1423.18 
  "></polyline>
<polyline clip-path="url(#clip590)" style="stroke:#000000; stroke-linecap:butt; stroke-linejoin:round; stroke-width:4; stroke-opacity:1; fill:none" points="
  344.846,1423.18 344.846,1404.28 
  "></polyline>
<polyline clip-path="url(#clip590)" style="stroke:#000000; stroke-linecap:butt; stroke-linejoin:round; stroke-width:4; stroke-opacity:1; fill:none" points="
  832.21,1423.18 832.21,1404.28 
  "></polyline>
<polyline clip-path="url(#clip590)" style="stroke:#000000; stroke-linecap:butt; stroke-linejoin:round; stroke-width:4; stroke-opacity:1; fill:none" points="
  1319.57,1423.18 1319.57,1404.28 
  "></polyline>
<polyline clip-path="url(#clip590)" style="stroke:#000000; stroke-linecap:butt; stroke-linejoin:round; stroke-width:4; stroke-opacity:1; fill:none" points="
  1806.94,1423.18 1806.94,1404.28 
  "></polyline>
<polyline clip-path="url(#clip590)" style="stroke:#000000; stroke-linecap:butt; stroke-linejoin:round; stroke-width:4; stroke-opacity:1; fill:none" points="
  2294.3,1423.18 2294.3,1404.28 
  "></polyline>
<path clip-path="url(#clip590)" d="M344.846 1454.1 Q341.235 1454.1 339.406 1457.66 Q337.6 1461.2 337.6 1468.33 Q337.6 1475.44 339.406 1479.01 Q341.235 1482.55 344.846 1482.55 Q348.48 1482.55 350.285 1479.01 Q352.114 1475.44 352.114 1468.33 Q352.114 1461.2 350.285 1457.66 Q348.48 1454.1 344.846 1454.1 M344.846 1450.39 Q350.656 1450.39 353.711 1455 Q356.79 1459.58 356.79 1468.33 Q356.79 1477.06 353.711 1481.67 Q350.656 1486.25 344.846 1486.25 Q339.035 1486.25 335.957 1481.67 Q332.901 1477.06 332.901 1468.33 Q332.901 1459.58 335.957 1455 Q339.035 1450.39 344.846 1450.39 Z" fill="#000000" fill-rule="evenodd" fill-opacity="1"></path><path clip-path="url(#clip590)" d="M791.828 1451.02 L810.184 1451.02 L810.184 1454.96 L796.11 1454.96 L796.11 1463.43 Q797.129 1463.08 798.147 1462.92 Q799.166 1462.73 800.184 1462.73 Q805.971 1462.73 809.351 1465.9 Q812.731 1469.08 812.731 1474.49 Q812.731 1480.07 809.258 1483.17 Q805.786 1486.25 799.467 1486.25 Q797.291 1486.25 795.022 1485.88 Q792.777 1485.51 790.37 1484.77 L790.37 1480.07 Q792.453 1481.2 794.675 1481.76 Q796.897 1482.32 799.374 1482.32 Q803.379 1482.32 805.717 1480.21 Q808.055 1478.1 808.055 1474.49 Q808.055 1470.88 805.717 1468.77 Q803.379 1466.67 799.374 1466.67 Q797.499 1466.67 795.624 1467.08 Q793.772 1467.5 791.828 1468.38 L791.828 1451.02 Z" fill="#000000" fill-rule="evenodd" fill-opacity="1"></path><path clip-path="url(#clip590)" d="M831.943 1454.1 Q828.332 1454.1 826.504 1457.66 Q824.698 1461.2 824.698 1468.33 Q824.698 1475.44 826.504 1479.01 Q828.332 1482.55 831.943 1482.55 Q835.578 1482.55 837.383 1479.01 Q839.212 1475.44 839.212 1468.33 Q839.212 1461.2 837.383 1457.66 Q835.578 1454.1 831.943 1454.1 M831.943 1450.39 Q837.754 1450.39 840.809 1455 Q843.888 1459.58 843.888 1468.33 Q843.888 1477.06 840.809 1481.67 Q837.754 1486.25 831.943 1486.25 Q826.133 1486.25 823.055 1481.67 Q819.999 1477.06 819.999 1468.33 Q819.999 1459.58 823.055 1455 Q826.133 1450.39 831.943 1450.39 Z" fill="#000000" fill-rule="evenodd" fill-opacity="1"></path><path clip-path="url(#clip590)" d="M862.105 1454.1 Q858.494 1454.1 856.665 1457.66 Q854.86 1461.2 854.86 1468.33 Q854.86 1475.44 856.665 1479.01 Q858.494 1482.55 862.105 1482.55 Q865.739 1482.55 867.545 1479.01 Q869.374 1475.44 869.374 1468.33 Q869.374 1461.2 867.545 1457.66 Q865.739 1454.1 862.105 1454.1 M862.105 1450.39 Q867.915 1450.39 870.971 1455 Q874.05 1459.58 874.05 1468.33 Q874.05 1477.06 870.971 1481.67 Q867.915 1486.25 862.105 1486.25 Q856.295 1486.25 853.216 1481.67 Q850.161 1477.06 850.161 1468.33 Q850.161 1459.58 853.216 1455 Q856.295 1450.39 862.105 1450.39 Z" fill="#000000" fill-rule="evenodd" fill-opacity="1"></path><path clip-path="url(#clip590)" d="M1264.1 1481.64 L1271.74 1481.64 L1271.74 1455.28 L1263.43 1456.95 L1263.43 1452.69 L1271.69 1451.02 L1276.37 1451.02 L1276.37 1481.64 L1284.01 1481.64 L1284.01 1485.58 L1264.1 1485.58 L1264.1 1481.64 Z" fill="#000000" fill-rule="evenodd" fill-opacity="1"></path><path clip-path="url(#clip590)" d="M1303.45 1454.1 Q1299.84 1454.1 1298.01 1457.66 Q1296.21 1461.2 1296.21 1468.33 Q1296.21 1475.44 1298.01 1479.01 Q1299.84 1482.55 1303.45 1482.55 Q1307.09 1482.55 1308.89 1479.01 Q1310.72 1475.44 1310.72 1468.33 Q1310.72 1461.2 1308.89 1457.66 Q1307.09 1454.1 1303.45 1454.1 M1303.45 1450.39 Q1309.26 1450.39 1312.32 1455 Q1315.4 1459.58 1315.4 1468.33 Q1315.4 1477.06 1312.32 1481.67 Q1309.26 1486.25 1303.45 1486.25 Q1297.64 1486.25 1294.56 1481.67 Q1291.51 1477.06 1291.51 1468.33 Q1291.51 1459.58 1294.56 1455 Q1297.64 1450.39 1303.45 1450.39 Z" fill="#000000" fill-rule="evenodd" fill-opacity="1"></path><path clip-path="url(#clip590)" d="M1333.61 1454.1 Q1330 1454.1 1328.17 1457.66 Q1326.37 1461.2 1326.37 1468.33 Q1326.37 1475.44 1328.17 1479.01 Q1330 1482.55 1333.61 1482.55 Q1337.25 1482.55 1339.05 1479.01 Q1340.88 1475.44 1340.88 1468.33 Q1340.88 1461.2 1339.05 1457.66 Q1337.25 1454.1 1333.61 1454.1 M1333.61 1450.39 Q1339.42 1450.39 1342.48 1455 Q1345.56 1459.58 1345.56 1468.33 Q1345.56 1477.06 1342.48 1481.67 Q1339.42 1486.25 1333.61 1486.25 Q1327.8 1486.25 1324.72 1481.67 Q1321.67 1477.06 1321.67 1468.33 Q1321.67 1459.58 1324.72 1455 Q1327.8 1450.39 1333.61 1450.39 Z" fill="#000000" fill-rule="evenodd" fill-opacity="1"></path><path clip-path="url(#clip590)" d="M1363.77 1454.1 Q1360.16 1454.1 1358.33 1457.66 Q1356.53 1461.2 1356.53 1468.33 Q1356.53 1475.44 1358.33 1479.01 Q1360.16 1482.55 1363.77 1482.55 Q1367.41 1482.55 1369.21 1479.01 Q1371.04 1475.44 1371.04 1468.33 Q1371.04 1461.2 1369.21 1457.66 Q1367.41 1454.1 1363.77 1454.1 M1363.77 1450.39 Q1369.58 1450.39 1372.64 1455 Q1375.72 1459.58 1375.72 1468.33 Q1375.72 1477.06 1372.64 1481.67 Q1369.58 1486.25 1363.77 1486.25 Q1357.96 1486.25 1354.89 1481.67 Q1351.83 1477.06 1351.83 1468.33 Q1351.83 1459.58 1354.89 1455 Q1357.96 1450.39 1363.77 1450.39 Z" fill="#000000" fill-rule="evenodd" fill-opacity="1"></path><path clip-path="url(#clip590)" d="M1751.46 1481.64 L1759.1 1481.64 L1759.1 1455.28 L1750.79 1456.95 L1750.79 1452.69 L1759.06 1451.02 L1763.73 1451.02 L1763.73 1481.64 L1771.37 1481.64 L1771.37 1485.58 L1751.46 1485.58 L1751.46 1481.64 Z" fill="#000000" fill-rule="evenodd" fill-opacity="1"></path><path clip-path="url(#clip590)" d="M1780.86 1451.02 L1799.22 1451.02 L1799.22 1454.96 L1785.14 1454.96 L1785.14 1463.43 Q1786.16 1463.08 1787.18 1462.92 Q1788.2 1462.73 1789.22 1462.73 Q1795 1462.73 1798.38 1465.9 Q1801.76 1469.08 1801.76 1474.49 Q1801.76 1480.07 1798.29 1483.17 Q1794.82 1486.25 1788.5 1486.25 Q1786.32 1486.25 1784.06 1485.88 Q1781.81 1485.51 1779.4 1484.77 L1779.4 1480.07 Q1781.49 1481.2 1783.71 1481.76 Q1785.93 1482.32 1788.41 1482.32 Q1792.41 1482.32 1794.75 1480.21 Q1797.09 1478.1 1797.09 1474.49 Q1797.09 1470.88 1794.75 1468.77 Q1792.41 1466.67 1788.41 1466.67 Q1786.53 1466.67 1784.66 1467.08 Q1782.81 1467.5 1780.86 1468.38 L1780.86 1451.02 Z" fill="#000000" fill-rule="evenodd" fill-opacity="1"></path><path clip-path="url(#clip590)" d="M1820.98 1454.1 Q1817.37 1454.1 1815.54 1457.66 Q1813.73 1461.2 1813.73 1468.33 Q1813.73 1475.44 1815.54 1479.01 Q1817.37 1482.55 1820.98 1482.55 Q1824.61 1482.55 1826.42 1479.01 Q1828.25 1475.44 1828.25 1468.33 Q1828.25 1461.2 1826.42 1457.66 Q1824.61 1454.1 1820.98 1454.1 M1820.98 1450.39 Q1826.79 1450.39 1829.84 1455 Q1832.92 1459.58 1832.92 1468.33 Q1832.92 1477.06 1829.84 1481.67 Q1826.79 1486.25 1820.98 1486.25 Q1815.17 1486.25 1812.09 1481.67 Q1809.03 1477.06 1809.03 1468.33 Q1809.03 1459.58 1812.09 1455 Q1815.17 1450.39 1820.98 1450.39 Z" fill="#000000" fill-rule="evenodd" fill-opacity="1"></path><path clip-path="url(#clip590)" d="M1851.14 1454.1 Q1847.53 1454.1 1845.7 1457.66 Q1843.89 1461.2 1843.89 1468.33 Q1843.89 1475.44 1845.7 1479.01 Q1847.53 1482.55 1851.14 1482.55 Q1854.77 1482.55 1856.58 1479.01 Q1858.41 1475.44 1858.41 1468.33 Q1858.41 1461.2 1856.58 1457.66 Q1854.77 1454.1 1851.14 1454.1 M1851.14 1450.39 Q1856.95 1450.39 1860 1455 Q1863.08 1459.58 1863.08 1468.33 Q1863.08 1477.06 1860 1481.67 Q1856.95 1486.25 1851.14 1486.25 Q1845.33 1486.25 1842.25 1481.67 Q1839.19 1477.06 1839.19 1468.33 Q1839.19 1459.58 1842.25 1455 Q1845.33 1450.39 1851.14 1450.39 Z" fill="#000000" fill-rule="evenodd" fill-opacity="1"></path><path clip-path="url(#clip590)" d="M2242.91 1481.64 L2259.23 1481.64 L2259.23 1485.58 L2237.29 1485.58 L2237.29 1481.64 Q2239.95 1478.89 2244.53 1474.26 Q2249.14 1469.61 2250.32 1468.27 Q2252.57 1465.74 2253.45 1464.01 Q2254.35 1462.25 2254.35 1460.56 Q2254.35 1457.8 2252.4 1456.07 Q2250.48 1454.33 2247.38 1454.33 Q2245.18 1454.33 2242.73 1455.09 Q2240.3 1455.86 2237.52 1457.41 L2237.52 1452.69 Q2240.34 1451.55 2242.8 1450.97 Q2245.25 1450.39 2247.29 1450.39 Q2252.66 1450.39 2255.85 1453.08 Q2259.05 1455.77 2259.05 1460.26 Q2259.05 1462.39 2258.24 1464.31 Q2257.45 1466.2 2255.34 1468.8 Q2254.76 1469.47 2251.66 1472.69 Q2248.56 1475.88 2242.91 1481.64 Z" fill="#000000" fill-rule="evenodd" fill-opacity="1"></path><path clip-path="url(#clip590)" d="M2279.05 1454.1 Q2275.44 1454.1 2273.61 1457.66 Q2271.8 1461.2 2271.8 1468.33 Q2271.8 1475.44 2273.61 1479.01 Q2275.44 1482.55 2279.05 1482.55 Q2282.68 1482.55 2284.49 1479.01 Q2286.32 1475.44 2286.32 1468.33 Q2286.32 1461.2 2284.49 1457.66 Q2282.68 1454.1 2279.05 1454.1 M2279.05 1450.39 Q2284.86 1450.39 2287.91 1455 Q2290.99 1459.58 2290.99 1468.33 Q2290.99 1477.06 2287.91 1481.67 Q2284.86 1486.25 2279.05 1486.25 Q2273.24 1486.25 2270.16 1481.67 Q2267.1 1477.06 2267.1 1468.33 Q2267.1 1459.58 2270.16 1455 Q2273.24 1450.39 2279.05 1450.39 Z" fill="#000000" fill-rule="evenodd" fill-opacity="1"></path><path clip-path="url(#clip590)" d="M2309.21 1454.1 Q2305.6 1454.1 2303.77 1457.66 Q2301.96 1461.2 2301.96 1468.33 Q2301.96 1475.44 2303.77 1479.01 Q2305.6 1482.55 2309.21 1482.55 Q2312.84 1482.55 2314.65 1479.01 Q2316.48 1475.44 2316.48 1468.33 Q2316.48 1461.2 2314.65 1457.66 Q2312.84 1454.1 2309.21 1454.1 M2309.21 1450.39 Q2315.02 1450.39 2318.07 1455 Q2321.15 1459.58 2321.15 1468.33 Q2321.15 1477.06 2318.07 1481.67 Q2315.02 1486.25 2309.21 1486.25 Q2303.4 1486.25 2300.32 1481.67 Q2297.26 1477.06 2297.26 1468.33 Q2297.26 1459.58 2300.32 1455 Q2303.4 1450.39 2309.21 1450.39 Z" fill="#000000" fill-rule="evenodd" fill-opacity="1"></path><path clip-path="url(#clip590)" d="M2339.37 1454.1 Q2335.76 1454.1 2333.93 1457.66 Q2332.13 1461.2 2332.13 1468.33 Q2332.13 1475.44 2333.93 1479.01 Q2335.76 1482.55 2339.37 1482.55 Q2343 1482.55 2344.81 1479.01 Q2346.64 1475.44 2346.64 1468.33 Q2346.64 1461.2 2344.81 1457.66 Q2343 1454.1 2339.37 1454.1 M2339.37 1450.39 Q2345.18 1450.39 2348.24 1455 Q2351.32 1459.58 2351.32 1468.33 Q2351.32 1477.06 2348.24 1481.67 Q2345.18 1486.25 2339.37 1486.25 Q2333.56 1486.25 2330.48 1481.67 Q2327.43 1477.06 2327.43 1468.33 Q2327.43 1459.58 2330.48 1455 Q2333.56 1450.39 2339.37 1450.39 Z" fill="#000000" fill-rule="evenodd" fill-opacity="1"></path><path clip-path="url(#clip590)" d="M1241.94 1520.52 L1282.14 1520.52 L1282.14 1525.93 L1265.27 1525.93 L1265.27 1568.04 L1258.81 1568.04 L1258.81 1525.93 L1241.94 1525.93 L1241.94 1520.52 Z" fill="#000000" fill-rule="evenodd" fill-opacity="1"></path><path clip-path="url(#clip590)" d="M1286.08 1532.4 L1291.94 1532.4 L1291.94 1568.04 L1286.08 1568.04 L1286.08 1532.4 M1286.08 1518.52 L1291.94 1518.52 L1291.94 1525.93 L1286.08 1525.93 L1286.08 1518.52 Z" fill="#000000" fill-rule="evenodd" fill-opacity="1"></path><path clip-path="url(#clip590)" d="M1331.95 1539.24 Q1334.15 1535.29 1337.2 1533.41 Q1340.26 1531.54 1344.39 1531.54 Q1349.96 1531.54 1352.99 1535.45 Q1356.01 1539.33 1356.01 1546.53 L1356.01 1568.04 L1350.12 1568.04 L1350.12 1546.72 Q1350.12 1541.59 1348.31 1539.11 Q1346.49 1536.63 1342.77 1536.63 Q1338.22 1536.63 1335.58 1539.65 Q1332.94 1542.68 1332.94 1547.9 L1332.94 1568.04 L1327.05 1568.04 L1327.05 1546.72 Q1327.05 1541.56 1325.23 1539.11 Q1323.42 1536.63 1319.63 1536.63 Q1315.14 1536.63 1312.5 1539.68 Q1309.86 1542.71 1309.86 1547.9 L1309.86 1568.04 L1303.97 1568.04 L1303.97 1532.4 L1309.86 1532.4 L1309.86 1537.93 Q1311.87 1534.66 1314.67 1533.1 Q1317.47 1531.54 1321.32 1531.54 Q1325.2 1531.54 1327.91 1533.51 Q1330.64 1535.48 1331.95 1539.24 Z" fill="#000000" fill-rule="evenodd" fill-opacity="1"></path><path clip-path="url(#clip590)" d="M1398.18 1548.76 L1398.18 1551.62 L1371.26 1551.62 Q1371.64 1557.67 1374.89 1560.85 Q1378.16 1564 1383.99 1564 Q1387.36 1564 1390.51 1563.17 Q1393.7 1562.35 1396.82 1560.69 L1396.82 1566.23 Q1393.66 1567.57 1390.35 1568.27 Q1387.04 1568.97 1383.64 1568.97 Q1375.11 1568.97 1370.11 1564 Q1365.15 1559.04 1365.15 1550.57 Q1365.15 1541.82 1369.86 1536.69 Q1374.6 1531.54 1382.62 1531.54 Q1389.81 1531.54 1393.98 1536.18 Q1398.18 1540.8 1398.18 1548.76 M1392.33 1547.04 Q1392.26 1542.23 1389.62 1539.37 Q1387.01 1536.5 1382.68 1536.5 Q1377.78 1536.5 1374.82 1539.27 Q1371.89 1542.04 1371.45 1547.07 L1392.33 1547.04 Z" fill="#000000" fill-rule="evenodd" fill-opacity="1"></path><polyline clip-path="url(#clip592)" style="stroke:#000000; stroke-linecap:butt; stroke-linejoin:round; stroke-width:2; stroke-opacity:0.1; fill:none" points="
  287.366,1258 2352.76,1258 
  "></polyline>
<polyline clip-path="url(#clip592)" style="stroke:#000000; stroke-linecap:butt; stroke-linejoin:round; stroke-width:2; stroke-opacity:0.1; fill:none" points="
  287.366,1015.66 2352.76,1015.66 
  "></polyline>
<polyline clip-path="url(#clip592)" style="stroke:#000000; stroke-linecap:butt; stroke-linejoin:round; stroke-width:2; stroke-opacity:0.1; fill:none" points="
  287.366,773.326 2352.76,773.326 
  "></polyline>
<polyline clip-path="url(#clip592)" style="stroke:#000000; stroke-linecap:butt; stroke-linejoin:round; stroke-width:2; stroke-opacity:0.1; fill:none" points="
  287.366,530.989 2352.76,530.989 
  "></polyline>
<polyline clip-path="url(#clip592)" style="stroke:#000000; stroke-linecap:butt; stroke-linejoin:round; stroke-width:2; stroke-opacity:0.1; fill:none" points="
  287.366,288.652 2352.76,288.652 
  "></polyline>
<polyline clip-path="url(#clip590)" style="stroke:#000000; stroke-linecap:butt; stroke-linejoin:round; stroke-width:4; stroke-opacity:1; fill:none" points="
  287.366,1423.18 287.366,123.472 
  "></polyline>
<polyline clip-path="url(#clip590)" style="stroke:#000000; stroke-linecap:butt; stroke-linejoin:round; stroke-width:4; stroke-opacity:1; fill:none" points="
  287.366,1258 306.264,1258 
  "></polyline>
<polyline clip-path="url(#clip590)" style="stroke:#000000; stroke-linecap:butt; stroke-linejoin:round; stroke-width:4; stroke-opacity:1; fill:none" points="
  287.366,1015.66 306.264,1015.66 
  "></polyline>
<polyline clip-path="url(#clip590)" style="stroke:#000000; stroke-linecap:butt; stroke-linejoin:round; stroke-width:4; stroke-opacity:1; fill:none" points="
  287.366,773.326 306.264,773.326 
  "></polyline>
<polyline clip-path="url(#clip590)" style="stroke:#000000; stroke-linecap:butt; stroke-linejoin:round; stroke-width:4; stroke-opacity:1; fill:none" points="
  287.366,530.989 306.264,530.989 
  "></polyline>
<polyline clip-path="url(#clip590)" style="stroke:#000000; stroke-linecap:butt; stroke-linejoin:round; stroke-width:4; stroke-opacity:1; fill:none" points="
  287.366,288.652 306.264,288.652 
  "></polyline>
<path clip-path="url(#clip590)" d="M114.26 1258.45 L143.936 1258.45 L143.936 1262.39 L114.26 1262.39 L114.26 1258.45 Z" fill="#000000" fill-rule="evenodd" fill-opacity="1"></path><path clip-path="url(#clip590)" d="M164.028 1243.8 Q160.417 1243.8 158.589 1247.36 Q156.783 1250.91 156.783 1258.03 Q156.783 1265.14 158.589 1268.71 Q160.417 1272.25 164.028 1272.25 Q167.663 1272.25 169.468 1268.71 Q171.297 1265.14 171.297 1258.03 Q171.297 1250.91 169.468 1247.36 Q167.663 1243.8 164.028 1243.8 M164.028 1240.1 Q169.839 1240.1 172.894 1244.7 Q175.973 1249.28 175.973 1258.03 Q175.973 1266.76 172.894 1271.37 Q169.839 1275.95 164.028 1275.95 Q158.218 1275.95 155.14 1271.37 Q152.084 1266.76 152.084 1258.03 Q152.084 1249.28 155.14 1244.7 Q158.218 1240.1 164.028 1240.1 Z" fill="#000000" fill-rule="evenodd" fill-opacity="1"></path><path clip-path="url(#clip590)" d="M184.19 1269.4 L189.075 1269.4 L189.075 1275.28 L184.19 1275.28 L184.19 1269.4 Z" fill="#000000" fill-rule="evenodd" fill-opacity="1"></path><path clip-path="url(#clip590)" d="M199.306 1240.72 L217.662 1240.72 L217.662 1244.66 L203.588 1244.66 L203.588 1253.13 Q204.607 1252.78 205.625 1252.62 Q206.644 1252.43 207.662 1252.43 Q213.449 1252.43 216.829 1255.6 Q220.209 1258.78 220.209 1264.19 Q220.209 1269.77 216.736 1272.87 Q213.264 1275.95 206.945 1275.95 Q204.769 1275.95 202.5 1275.58 Q200.255 1275.21 197.848 1274.47 L197.848 1269.77 Q199.931 1270.91 202.153 1271.46 Q204.375 1272.02 206.852 1272.02 Q210.857 1272.02 213.195 1269.91 Q215.533 1267.8 215.533 1264.19 Q215.533 1260.58 213.195 1258.47 Q210.857 1256.37 206.852 1256.37 Q204.977 1256.37 203.102 1256.78 Q201.25 1257.2 199.306 1258.08 L199.306 1240.72 Z" fill="#000000" fill-rule="evenodd" fill-opacity="1"></path><path clip-path="url(#clip590)" d="M239.422 1243.8 Q235.81 1243.8 233.982 1247.36 Q232.176 1250.91 232.176 1258.03 Q232.176 1265.14 233.982 1268.71 Q235.81 1272.25 239.422 1272.25 Q243.056 1272.25 244.861 1268.71 Q246.69 1265.14 246.69 1258.03 Q246.69 1250.91 244.861 1247.36 Q243.056 1243.8 239.422 1243.8 M239.422 1240.1 Q245.232 1240.1 248.287 1244.7 Q251.366 1249.28 251.366 1258.03 Q251.366 1266.76 248.287 1271.37 Q245.232 1275.95 239.422 1275.95 Q233.611 1275.95 230.533 1271.37 Q227.477 1266.76 227.477 1258.03 Q227.477 1249.28 230.533 1244.7 Q233.611 1240.1 239.422 1240.1 Z" fill="#000000" fill-rule="evenodd" fill-opacity="1"></path><path clip-path="url(#clip590)" d="M115.256 1016.11 L144.931 1016.11 L144.931 1020.05 L115.256 1020.05 L115.256 1016.11 Z" fill="#000000" fill-rule="evenodd" fill-opacity="1"></path><path clip-path="url(#clip590)" d="M165.024 1001.46 Q161.413 1001.46 159.584 1005.03 Q157.778 1008.57 157.778 1015.7 Q157.778 1022.8 159.584 1026.37 Q161.413 1029.91 165.024 1029.91 Q168.658 1029.91 170.464 1026.37 Q172.292 1022.8 172.292 1015.7 Q172.292 1008.57 170.464 1005.03 Q168.658 1001.46 165.024 1001.46 M165.024 997.758 Q170.834 997.758 173.889 1002.36 Q176.968 1006.95 176.968 1015.7 Q176.968 1024.42 173.889 1029.03 Q170.834 1033.61 165.024 1033.61 Q159.214 1033.61 156.135 1029.03 Q153.079 1024.42 153.079 1015.7 Q153.079 1006.95 156.135 1002.36 Q159.214 997.758 165.024 997.758 Z" fill="#000000" fill-rule="evenodd" fill-opacity="1"></path><path clip-path="url(#clip590)" d="M185.186 1027.06 L190.07 1027.06 L190.07 1032.94 L185.186 1032.94 L185.186 1027.06 Z" fill="#000000" fill-rule="evenodd" fill-opacity="1"></path><path clip-path="url(#clip590)" d="M204.283 1029.01 L220.602 1029.01 L220.602 1032.94 L198.658 1032.94 L198.658 1029.01 Q201.32 1026.25 205.903 1021.62 Q210.51 1016.97 211.69 1015.63 Q213.936 1013.11 214.815 1011.37 Q215.718 1009.61 215.718 1007.92 Q215.718 1005.17 213.774 1003.43 Q211.852 1001.69 208.75 1001.69 Q206.551 1001.69 204.098 1002.46 Q201.667 1003.22 198.889 1004.77 L198.889 1000.05 Q201.713 998.915 204.167 998.337 Q206.621 997.758 208.658 997.758 Q214.028 997.758 217.223 1000.44 Q220.417 1003.13 220.417 1007.62 Q220.417 1009.75 219.607 1011.67 Q218.82 1013.57 216.713 1016.16 Q216.135 1016.83 213.033 1020.05 Q209.931 1023.24 204.283 1029.01 Z" fill="#000000" fill-rule="evenodd" fill-opacity="1"></path><path clip-path="url(#clip590)" d="M230.463 998.383 L248.82 998.383 L248.82 1002.32 L234.746 1002.32 L234.746 1010.79 Q235.764 1010.44 236.783 1010.28 Q237.801 1010.1 238.82 1010.1 Q244.607 1010.1 247.986 1013.27 Q251.366 1016.44 251.366 1021.86 Q251.366 1027.43 247.894 1030.54 Q244.421 1033.61 238.102 1033.61 Q235.926 1033.61 233.658 1033.24 Q231.412 1032.87 229.005 1032.13 L229.005 1027.43 Q231.088 1028.57 233.31 1029.12 Q235.533 1029.68 238.009 1029.68 Q242.014 1029.68 244.352 1027.57 Q246.69 1025.47 246.69 1021.86 Q246.69 1018.24 244.352 1016.14 Q242.014 1014.03 238.009 1014.03 Q236.135 1014.03 234.26 1014.45 Q232.408 1014.86 230.463 1015.74 L230.463 998.383 Z" fill="#000000" fill-rule="evenodd" fill-opacity="1"></path><path clip-path="url(#clip590)" d="M164.028 759.125 Q160.417 759.125 158.589 762.689 Q156.783 766.231 156.783 773.361 Q156.783 780.467 158.589 784.032 Q160.417 787.574 164.028 787.574 Q167.663 787.574 169.468 784.032 Q171.297 780.467 171.297 773.361 Q171.297 766.231 169.468 762.689 Q167.663 759.125 164.028 759.125 M164.028 755.421 Q169.839 755.421 172.894 760.027 Q175.973 764.611 175.973 773.361 Q175.973 782.088 172.894 786.694 Q169.839 791.277 164.028 791.277 Q158.218 791.277 155.14 786.694 Q152.084 782.088 152.084 773.361 Q152.084 764.611 155.14 760.027 Q158.218 755.421 164.028 755.421 Z" fill="#000000" fill-rule="evenodd" fill-opacity="1"></path><path clip-path="url(#clip590)" d="M184.19 784.726 L189.075 784.726 L189.075 790.606 L184.19 790.606 L184.19 784.726 Z" fill="#000000" fill-rule="evenodd" fill-opacity="1"></path><path clip-path="url(#clip590)" d="M209.26 759.125 Q205.649 759.125 203.82 762.689 Q202.014 766.231 202.014 773.361 Q202.014 780.467 203.82 784.032 Q205.649 787.574 209.26 787.574 Q212.894 787.574 214.699 784.032 Q216.528 780.467 216.528 773.361 Q216.528 766.231 214.699 762.689 Q212.894 759.125 209.26 759.125 M209.26 755.421 Q215.07 755.421 218.125 760.027 Q221.204 764.611 221.204 773.361 Q221.204 782.088 218.125 786.694 Q215.07 791.277 209.26 791.277 Q203.449 791.277 200.371 786.694 Q197.315 782.088 197.315 773.361 Q197.315 764.611 200.371 760.027 Q203.449 755.421 209.26 755.421 Z" fill="#000000" fill-rule="evenodd" fill-opacity="1"></path><path clip-path="url(#clip590)" d="M239.422 759.125 Q235.81 759.125 233.982 762.689 Q232.176 766.231 232.176 773.361 Q232.176 780.467 233.982 784.032 Q235.81 787.574 239.422 787.574 Q243.056 787.574 244.861 784.032 Q246.69 780.467 246.69 773.361 Q246.69 766.231 244.861 762.689 Q243.056 759.125 239.422 759.125 M239.422 755.421 Q245.232 755.421 248.287 760.027 Q251.366 764.611 251.366 773.361 Q251.366 782.088 248.287 786.694 Q245.232 791.277 239.422 791.277 Q233.611 791.277 230.533 786.694 Q227.477 782.088 227.477 773.361 Q227.477 764.611 230.533 760.027 Q233.611 755.421 239.422 755.421 Z" fill="#000000" fill-rule="evenodd" fill-opacity="1"></path><path clip-path="url(#clip590)" d="M165.024 516.788 Q161.413 516.788 159.584 520.352 Q157.778 523.894 157.778 531.024 Q157.778 538.13 159.584 541.695 Q161.413 545.237 165.024 545.237 Q168.658 545.237 170.464 541.695 Q172.292 538.13 172.292 531.024 Q172.292 523.894 170.464 520.352 Q168.658 516.788 165.024 516.788 M165.024 513.084 Q170.834 513.084 173.889 517.69 Q176.968 522.274 176.968 531.024 Q176.968 539.75 173.889 544.357 Q170.834 548.94 165.024 548.94 Q159.214 548.94 156.135 544.357 Q153.079 539.75 153.079 531.024 Q153.079 522.274 156.135 517.69 Q159.214 513.084 165.024 513.084 Z" fill="#000000" fill-rule="evenodd" fill-opacity="1"></path><path clip-path="url(#clip590)" d="M185.186 542.389 L190.07 542.389 L190.07 548.269 L185.186 548.269 L185.186 542.389 Z" fill="#000000" fill-rule="evenodd" fill-opacity="1"></path><path clip-path="url(#clip590)" d="M204.283 544.334 L220.602 544.334 L220.602 548.269 L198.658 548.269 L198.658 544.334 Q201.32 541.579 205.903 536.95 Q210.51 532.297 211.69 530.954 Q213.936 528.431 214.815 526.695 Q215.718 524.936 215.718 523.246 Q215.718 520.491 213.774 518.755 Q211.852 517.019 208.75 517.019 Q206.551 517.019 204.098 517.783 Q201.667 518.547 198.889 520.098 L198.889 515.376 Q201.713 514.241 204.167 513.663 Q206.621 513.084 208.658 513.084 Q214.028 513.084 217.223 515.769 Q220.417 518.454 220.417 522.945 Q220.417 525.075 219.607 526.996 Q218.82 528.894 216.713 531.487 Q216.135 532.158 213.033 535.375 Q209.931 538.57 204.283 544.334 Z" fill="#000000" fill-rule="evenodd" fill-opacity="1"></path><path clip-path="url(#clip590)" d="M230.463 513.709 L248.82 513.709 L248.82 517.644 L234.746 517.644 L234.746 526.116 Q235.764 525.769 236.783 525.607 Q237.801 525.422 238.82 525.422 Q244.607 525.422 247.986 528.593 Q251.366 531.764 251.366 537.181 Q251.366 542.76 247.894 545.862 Q244.421 548.94 238.102 548.94 Q235.926 548.94 233.658 548.57 Q231.412 548.199 229.005 547.459 L229.005 542.76 Q231.088 543.894 233.31 544.449 Q235.533 545.005 238.009 545.005 Q242.014 545.005 244.352 542.899 Q246.69 540.792 246.69 537.181 Q246.69 533.57 244.352 531.463 Q242.014 529.357 238.009 529.357 Q236.135 529.357 234.26 529.774 Q232.408 530.19 230.463 531.07 L230.463 513.709 Z" fill="#000000" fill-rule="evenodd" fill-opacity="1"></path><path clip-path="url(#clip590)" d="M164.028 274.451 Q160.417 274.451 158.589 278.015 Q156.783 281.557 156.783 288.687 Q156.783 295.793 158.589 299.358 Q160.417 302.899 164.028 302.899 Q167.663 302.899 169.468 299.358 Q171.297 295.793 171.297 288.687 Q171.297 281.557 169.468 278.015 Q167.663 274.451 164.028 274.451 M164.028 270.747 Q169.839 270.747 172.894 275.353 Q175.973 279.937 175.973 288.687 Q175.973 297.413 172.894 302.02 Q169.839 306.603 164.028 306.603 Q158.218 306.603 155.14 302.02 Q152.084 297.413 152.084 288.687 Q152.084 279.937 155.14 275.353 Q158.218 270.747 164.028 270.747 Z" fill="#000000" fill-rule="evenodd" fill-opacity="1"></path><path clip-path="url(#clip590)" d="M184.19 300.052 L189.075 300.052 L189.075 305.932 L184.19 305.932 L184.19 300.052 Z" fill="#000000" fill-rule="evenodd" fill-opacity="1"></path><path clip-path="url(#clip590)" d="M199.306 271.372 L217.662 271.372 L217.662 275.307 L203.588 275.307 L203.588 283.779 Q204.607 283.432 205.625 283.27 Q206.644 283.085 207.662 283.085 Q213.449 283.085 216.829 286.256 Q220.209 289.427 220.209 294.844 Q220.209 300.423 216.736 303.524 Q213.264 306.603 206.945 306.603 Q204.769 306.603 202.5 306.233 Q200.255 305.862 197.848 305.122 L197.848 300.423 Q199.931 301.557 202.153 302.112 Q204.375 302.668 206.852 302.668 Q210.857 302.668 213.195 300.562 Q215.533 298.455 215.533 294.844 Q215.533 291.233 213.195 289.126 Q210.857 287.02 206.852 287.02 Q204.977 287.02 203.102 287.437 Q201.25 287.853 199.306 288.733 L199.306 271.372 Z" fill="#000000" fill-rule="evenodd" fill-opacity="1"></path><path clip-path="url(#clip590)" d="M239.422 274.451 Q235.81 274.451 233.982 278.015 Q232.176 281.557 232.176 288.687 Q232.176 295.793 233.982 299.358 Q235.81 302.899 239.422 302.899 Q243.056 302.899 244.861 299.358 Q246.69 295.793 246.69 288.687 Q246.69 281.557 244.861 278.015 Q243.056 274.451 239.422 274.451 M239.422 270.747 Q245.232 270.747 248.287 275.353 Q251.366 279.937 251.366 288.687 Q251.366 297.413 248.287 302.02 Q245.232 306.603 239.422 306.603 Q233.611 306.603 230.533 302.02 Q227.477 297.413 227.477 288.687 Q227.477 279.937 230.533 275.353 Q233.611 270.747 239.422 270.747 Z" fill="#000000" fill-rule="evenodd" fill-opacity="1"></path><path clip-path="url(#clip590)" d="M67.3143 800.905 Q73.68 803.388 75.6216 805.743 Q77.5631 808.099 77.5631 812.045 L77.5631 816.724 L72.6615 816.724 L72.6615 813.287 Q72.6615 810.868 71.5157 809.531 Q70.3699 808.194 66.1048 806.571 L63.4312 805.521 L28.3562 819.939 L28.3562 813.732 L56.238 802.592 L28.3562 791.452 L28.3562 785.246 L67.3143 800.905 Z" fill="#000000" fill-rule="evenodd" fill-opacity="1"></path><path clip-path="url(#clip590)" d="M74.8259 750.075 L79.3773 750.075 L79.3773 783.941 L74.8259 783.941 L74.8259 750.075 Z" fill="#000000" fill-rule="evenodd" fill-opacity="1"></path><path clip-path="url(#clip590)" d="M18.2347 738.776 L28.3562 738.776 L28.3562 726.713 L32.9077 726.713 L32.9077 738.776 L52.2594 738.776 Q56.6199 738.776 57.8613 737.598 Q59.1026 736.389 59.1026 732.729 L59.1026 726.713 L64.0042 726.713 L64.0042 732.729 Q64.0042 739.508 61.4897 742.086 Q58.9434 744.664 52.2594 744.664 L32.9077 744.664 L32.9077 748.961 L28.3562 748.961 L28.3562 744.664 L18.2347 744.664 L18.2347 738.776 Z" fill="#000000" fill-rule="evenodd" fill-opacity="1"></path><path clip-path="url(#clip590)" d="M618.303 12.096 L630.496 12.096 L645.93 53.2532 L661.445 12.096 L673.638 12.096 L673.638 72.576 L665.658 72.576 L665.658 19.4686 L650.062 60.9499 L641.838 60.9499 L626.242 19.4686 L626.242 72.576 L618.303 72.576 L618.303 12.096 Z" fill="#000000" fill-rule="evenodd" fill-opacity="1"></path><path clip-path="url(#clip590)" d="M710.177 49.7694 Q701.144 49.7694 697.66 51.8354 Q694.176 53.9013 694.176 58.8839 Q694.176 62.8538 696.769 65.2034 Q699.402 67.5124 703.898 67.5124 Q710.096 67.5124 713.823 63.1374 Q717.59 58.7219 717.59 51.4303 L717.59 49.7694 L710.177 49.7694 M725.044 46.6907 L725.044 72.576 L717.59 72.576 L717.59 65.6895 Q715.038 69.8214 711.23 71.8063 Q707.422 73.7508 701.913 73.7508 Q694.946 73.7508 690.814 69.8619 Q686.722 65.9325 686.722 59.3701 Q686.722 51.7138 691.826 47.825 Q696.971 43.9361 707.139 43.9361 L717.59 43.9361 L717.59 43.2069 Q717.59 38.0623 714.187 35.2672 Q710.825 32.4315 704.708 32.4315 Q700.819 32.4315 697.133 33.3632 Q693.447 34.295 690.044 36.1584 L690.044 29.2718 Q694.135 27.692 697.984 26.9223 Q701.832 26.1121 705.478 26.1121 Q715.322 26.1121 720.183 31.2163 Q725.044 36.3204 725.044 46.6907 Z" fill="#000000" fill-rule="evenodd" fill-opacity="1"></path><path clip-path="url(#clip590)" d="M766.687 34.1734 Q765.431 33.4443 763.933 33.1202 Q762.474 32.7556 760.692 32.7556 Q754.372 32.7556 750.97 36.8875 Q747.607 40.9789 747.607 48.6757 L747.607 72.576 L740.113 72.576 L740.113 27.2059 L747.607 27.2059 L747.607 34.2544 Q749.957 30.1225 753.724 28.1376 Q757.492 26.1121 762.879 26.1121 Q763.649 26.1121 764.581 26.2337 Q765.512 26.3147 766.647 26.5172 L766.687 34.1734 Z" fill="#000000" fill-rule="evenodd" fill-opacity="1"></path><path clip-path="url(#clip590)" d="M774.222 9.54393 L781.716 9.54393 L781.716 46.7717 L803.955 27.2059 L813.475 27.2059 L789.413 48.4326 L814.488 72.576 L804.766 72.576 L781.716 50.4176 L781.716 72.576 L774.222 72.576 L774.222 9.54393 Z" fill="#000000" fill-rule="evenodd" fill-opacity="1"></path><path clip-path="url(#clip590)" d="M837.173 32.4315 Q831.178 32.4315 827.694 37.1306 Q824.21 41.7891 824.21 49.9314 Q824.21 58.0738 827.653 62.7728 Q831.137 67.4314 837.173 67.4314 Q843.128 67.4314 846.611 62.7323 Q850.095 58.0333 850.095 49.9314 Q850.095 41.8701 846.611 37.1711 Q843.128 32.4315 837.173 32.4315 M837.173 26.1121 Q846.895 26.1121 852.445 32.4315 Q857.995 38.7509 857.995 49.9314 Q857.995 61.0714 852.445 67.4314 Q846.895 73.7508 837.173 73.7508 Q827.41 73.7508 821.86 67.4314 Q816.351 61.0714 816.351 49.9314 Q816.351 38.7509 821.86 32.4315 Q827.41 26.1121 837.173 26.1121 Z" fill="#000000" fill-rule="evenodd" fill-opacity="1"></path><path clip-path="url(#clip590)" d="M865.003 27.2059 L872.902 27.2059 L887.08 65.2844 L901.258 27.2059 L909.157 27.2059 L892.144 72.576 L882.016 72.576 L865.003 27.2059 Z" fill="#000000" fill-rule="evenodd" fill-opacity="1"></path><path clip-path="url(#clip590)" d="M991.431 16.7545 L991.431 25.383 Q987.299 21.5346 982.6 19.6307 Q977.942 17.7268 972.676 17.7268 Q962.305 17.7268 956.796 24.0867 Q951.287 30.4061 951.287 42.3968 Q951.287 54.3469 956.796 60.7069 Q962.305 67.0263 972.676 67.0263 Q977.942 67.0263 982.6 65.1223 Q987.299 63.2184 991.431 59.3701 L991.431 67.9175 Q987.137 70.8341 982.317 72.2924 Q977.537 73.7508 972.19 73.7508 Q958.457 73.7508 950.558 65.3654 Q942.658 56.9395 942.658 42.3968 Q942.658 27.8135 950.558 19.4281 Q958.457 11.0023 972.19 11.0023 Q977.618 11.0023 982.398 12.4606 Q987.218 13.8784 991.431 16.7545 Z" fill="#000000" fill-rule="evenodd" fill-opacity="1"></path><path clip-path="url(#clip590)" d="M1041.46 45.1919 L1041.46 72.576 L1034.01 72.576 L1034.01 45.4349 Q1034.01 38.994 1031.49 35.7938 Q1028.98 32.5936 1023.96 32.5936 Q1017.92 32.5936 1014.44 36.4419 Q1010.96 40.2903 1010.96 46.9338 L1010.96 72.576 L1003.46 72.576 L1003.46 9.54393 L1010.96 9.54393 L1010.96 34.2544 Q1013.63 30.163 1017.24 28.1376 Q1020.88 26.1121 1025.62 26.1121 Q1033.44 26.1121 1037.45 30.9732 Q1041.46 35.7938 1041.46 45.1919 Z" fill="#000000" fill-rule="evenodd" fill-opacity="1"></path><path clip-path="url(#clip590)" d="M1076.95 49.7694 Q1067.91 49.7694 1064.43 51.8354 Q1060.94 53.9013 1060.94 58.8839 Q1060.94 62.8538 1063.54 65.2034 Q1066.17 67.5124 1070.67 67.5124 Q1076.86 67.5124 1080.59 63.1374 Q1084.36 58.7219 1084.36 51.4303 L1084.36 49.7694 L1076.95 49.7694 M1091.81 46.6907 L1091.81 72.576 L1084.36 72.576 L1084.36 65.6895 Q1081.81 69.8214 1078 71.8063 Q1074.19 73.7508 1068.68 73.7508 Q1061.71 73.7508 1057.58 69.8619 Q1053.49 65.9325 1053.49 59.3701 Q1053.49 51.7138 1058.6 47.825 Q1063.74 43.9361 1073.91 43.9361 L1084.36 43.9361 L1084.36 43.2069 Q1084.36 38.0623 1080.96 35.2672 Q1077.59 32.4315 1071.48 32.4315 Q1067.59 32.4315 1063.9 33.3632 Q1060.22 34.295 1056.81 36.1584 L1056.81 29.2718 Q1060.9 27.692 1064.75 26.9223 Q1068.6 26.1121 1072.25 26.1121 Q1082.09 26.1121 1086.95 31.2163 Q1091.81 36.3204 1091.81 46.6907 Z" fill="#000000" fill-rule="evenodd" fill-opacity="1"></path><path clip-path="url(#clip590)" d="M1107.17 27.2059 L1114.62 27.2059 L1114.62 72.576 L1107.17 72.576 L1107.17 27.2059 M1107.17 9.54393 L1114.62 9.54393 L1114.62 18.9825 L1107.17 18.9825 L1107.17 9.54393 Z" fill="#000000" fill-rule="evenodd" fill-opacity="1"></path><path clip-path="url(#clip590)" d="M1167.93 45.1919 L1167.93 72.576 L1160.48 72.576 L1160.48 45.4349 Q1160.48 38.994 1157.96 35.7938 Q1155.45 32.5936 1150.43 32.5936 Q1144.39 32.5936 1140.91 36.4419 Q1137.43 40.2903 1137.43 46.9338 L1137.43 72.576 L1129.93 72.576 L1129.93 27.2059 L1137.43 27.2059 L1137.43 34.2544 Q1140.1 30.163 1143.7 28.1376 Q1147.35 26.1121 1152.09 26.1121 Q1159.91 26.1121 1163.92 30.9732 Q1167.93 35.7938 1167.93 45.1919 Z" fill="#000000" fill-rule="evenodd" fill-opacity="1"></path><path clip-path="url(#clip590)" d="M1245.75 14.0809 L1245.75 22.0612 Q1241.09 19.8332 1236.96 18.7395 Q1232.82 17.6457 1228.98 17.6457 Q1222.29 17.6457 1218.65 20.2383 Q1215.04 22.8309 1215.04 27.611 Q1215.04 31.6214 1217.43 33.6873 Q1219.86 35.7128 1226.59 36.9686 L1231.53 37.9813 Q1240.68 39.7232 1245.02 44.1387 Q1249.39 48.5136 1249.39 55.8863 Q1249.39 64.6767 1243.48 69.2137 Q1237.6 73.7508 1226.22 73.7508 Q1221.93 73.7508 1217.07 72.7785 Q1212.25 71.8063 1207.06 69.9024 L1207.06 61.4765 Q1212.04 64.2716 1216.82 65.6895 Q1221.6 67.1073 1226.22 67.1073 Q1233.23 67.1073 1237.04 64.3527 Q1240.85 61.598 1240.85 56.4939 Q1240.85 52.0379 1238.09 49.5264 Q1235.38 47.0148 1229.14 45.759 L1224.16 44.7868 Q1215 42.9639 1210.91 39.075 Q1206.82 35.1862 1206.82 28.2591 Q1206.82 20.2383 1212.45 15.6203 Q1218.12 11.0023 1228.04 11.0023 Q1232.3 11.0023 1236.71 11.7719 Q1241.13 12.5416 1245.75 14.0809 Z" fill="#000000" fill-rule="evenodd" fill-opacity="1"></path><path clip-path="url(#clip590)" d="M1261.83 27.2059 L1269.28 27.2059 L1269.28 72.576 L1261.83 72.576 L1261.83 27.2059 M1261.83 9.54393 L1269.28 9.54393 L1269.28 18.9825 L1261.83 18.9825 L1261.83 9.54393 Z" fill="#000000" fill-rule="evenodd" fill-opacity="1"></path><path clip-path="url(#clip590)" d="M1320.2 35.9153 Q1323 30.8922 1326.89 28.5022 Q1330.78 26.1121 1336.04 26.1121 Q1343.13 26.1121 1346.98 31.0947 Q1350.83 36.0368 1350.83 45.1919 L1350.83 72.576 L1343.33 72.576 L1343.33 45.4349 Q1343.33 38.913 1341.02 35.7533 Q1338.72 32.5936 1333.98 32.5936 Q1328.18 32.5936 1324.82 36.4419 Q1321.46 40.2903 1321.46 46.9338 L1321.46 72.576 L1313.96 72.576 L1313.96 45.4349 Q1313.96 38.8725 1311.66 35.7533 Q1309.35 32.5936 1304.53 32.5936 Q1298.81 32.5936 1295.45 36.4824 Q1292.09 40.3308 1292.09 46.9338 L1292.09 72.576 L1284.6 72.576 L1284.6 27.2059 L1292.09 27.2059 L1292.09 34.2544 Q1294.64 30.082 1298.21 28.0971 Q1301.77 26.1121 1306.67 26.1121 Q1311.61 26.1121 1315.06 28.6237 Q1318.54 31.1352 1320.2 35.9153 Z" fill="#000000" fill-rule="evenodd" fill-opacity="1"></path><path clip-path="url(#clip590)" d="M1364.92 54.671 L1364.92 27.2059 L1372.38 27.2059 L1372.38 54.3874 Q1372.38 60.8284 1374.89 64.0691 Q1377.4 67.2693 1382.42 67.2693 Q1388.46 67.2693 1391.94 63.421 Q1395.47 59.5726 1395.47 52.9291 L1395.47 27.2059 L1402.92 27.2059 L1402.92 72.576 L1395.47 72.576 L1395.47 65.6084 Q1392.75 69.7404 1389.15 71.7658 Q1385.58 73.7508 1380.84 73.7508 Q1373.03 73.7508 1368.98 68.8897 Q1364.92 64.0286 1364.92 54.671 M1383.68 26.1121 L1383.68 26.1121 Z" fill="#000000" fill-rule="evenodd" fill-opacity="1"></path><path clip-path="url(#clip590)" d="M1418.28 9.54393 L1425.73 9.54393 L1425.73 72.576 L1418.28 72.576 L1418.28 9.54393 Z" fill="#000000" fill-rule="evenodd" fill-opacity="1"></path><path clip-path="url(#clip590)" d="M1461.94 49.7694 Q1452.91 49.7694 1449.43 51.8354 Q1445.94 53.9013 1445.94 58.8839 Q1445.94 62.8538 1448.54 65.2034 Q1451.17 67.5124 1455.66 67.5124 Q1461.86 67.5124 1465.59 63.1374 Q1469.36 58.7219 1469.36 51.4303 L1469.36 49.7694 L1461.94 49.7694 M1476.81 46.6907 L1476.81 72.576 L1469.36 72.576 L1469.36 65.6895 Q1466.8 69.8214 1463 71.8063 Q1459.19 73.7508 1453.68 73.7508 Q1446.71 73.7508 1442.58 69.8619 Q1438.49 65.9325 1438.49 59.3701 Q1438.49 51.7138 1443.59 47.825 Q1448.74 43.9361 1458.91 43.9361 L1469.36 43.9361 L1469.36 43.2069 Q1469.36 38.0623 1465.95 35.2672 Q1462.59 32.4315 1456.48 32.4315 Q1452.59 32.4315 1448.9 33.3632 Q1445.21 34.295 1441.81 36.1584 L1441.81 29.2718 Q1445.9 27.692 1449.75 26.9223 Q1453.6 26.1121 1457.24 26.1121 Q1467.09 26.1121 1471.95 31.2163 Q1476.81 36.3204 1476.81 46.6907 Z" fill="#000000" fill-rule="evenodd" fill-opacity="1"></path><path clip-path="url(#clip590)" d="M1499.54 14.324 L1499.54 27.2059 L1514.89 27.2059 L1514.89 32.9987 L1499.54 32.9987 L1499.54 57.6282 Q1499.54 63.1779 1501.04 64.7578 Q1502.57 66.3376 1507.23 66.3376 L1514.89 66.3376 L1514.89 72.576 L1507.23 72.576 Q1498.6 72.576 1495.32 69.3758 Q1492.04 66.1351 1492.04 57.6282 L1492.04 32.9987 L1486.57 32.9987 L1486.57 27.2059 L1492.04 27.2059 L1492.04 14.324 L1499.54 14.324 Z" fill="#000000" fill-rule="evenodd" fill-opacity="1"></path><path clip-path="url(#clip590)" d="M1524.69 27.2059 L1532.15 27.2059 L1532.15 72.576 L1524.69 72.576 L1524.69 27.2059 M1524.69 9.54393 L1532.15 9.54393 L1532.15 18.9825 L1524.69 18.9825 L1524.69 9.54393 Z" fill="#000000" fill-rule="evenodd" fill-opacity="1"></path><path clip-path="url(#clip590)" d="M1565.32 32.4315 Q1559.33 32.4315 1555.84 37.1306 Q1552.36 41.7891 1552.36 49.9314 Q1552.36 58.0738 1555.8 62.7728 Q1559.29 67.4314 1565.32 67.4314 Q1571.28 67.4314 1574.76 62.7323 Q1578.25 58.0333 1578.25 49.9314 Q1578.25 41.8701 1574.76 37.1711 Q1571.28 32.4315 1565.32 32.4315 M1565.32 26.1121 Q1575.05 26.1121 1580.59 32.4315 Q1586.14 38.7509 1586.14 49.9314 Q1586.14 61.0714 1580.59 67.4314 Q1575.05 73.7508 1565.32 73.7508 Q1555.56 73.7508 1550.01 67.4314 Q1544.5 61.0714 1544.5 49.9314 Q1544.5 38.7509 1550.01 32.4315 Q1555.56 26.1121 1565.32 26.1121 Z" fill="#000000" fill-rule="evenodd" fill-opacity="1"></path><path clip-path="url(#clip590)" d="M1636.21 45.1919 L1636.21 72.576 L1628.76 72.576 L1628.76 45.4349 Q1628.76 38.994 1626.25 35.7938 Q1623.74 32.5936 1618.71 32.5936 Q1612.68 32.5936 1609.19 36.4419 Q1605.71 40.2903 1605.71 46.9338 L1605.71 72.576 L1598.22 72.576 L1598.22 27.2059 L1605.71 27.2059 L1605.71 34.2544 Q1608.38 30.163 1611.99 28.1376 Q1615.64 26.1121 1620.37 26.1121 Q1628.19 26.1121 1632.2 30.9732 Q1636.21 35.7938 1636.21 45.1919 Z" fill="#000000" fill-rule="evenodd" fill-opacity="1"></path><path clip-path="url(#clip590)" d="M1652.98 62.2867 L1661.53 62.2867 L1661.53 69.2543 L1654.89 82.2172 L1649.66 82.2172 L1652.98 69.2543 L1652.98 62.2867 Z" fill="#000000" fill-rule="evenodd" fill-opacity="1"></path><path clip-path="url(#clip590)" d="M1695.76 12.096 L1746.92 12.096 L1746.92 18.9825 L1725.46 18.9825 L1725.46 72.576 L1717.23 72.576 L1717.23 18.9825 L1695.76 18.9825 L1695.76 12.096 Z" fill="#000000" fill-rule="evenodd" fill-opacity="1"></path><path clip-path="url(#clip590)" d="M1755.47 34.9026 L1807.4 34.9026 L1807.4 41.7081 L1755.47 41.7081 L1755.47 34.9026 M1755.47 51.4303 L1807.4 51.4303 L1807.4 58.3168 L1755.47 58.3168 L1755.47 51.4303 Z" fill="#000000" fill-rule="evenodd" fill-opacity="1"></path><path clip-path="url(#clip590)" d="M1832.12 65.6895 L1860.67 65.6895 L1860.67 72.576 L1822.27 72.576 L1822.27 65.6895 Q1826.93 60.8689 1834.95 52.7671 Q1843.01 44.6248 1845.08 42.2752 Q1849.01 37.8598 1850.55 34.8216 Q1852.13 31.7429 1852.13 28.7857 Q1852.13 23.9651 1848.72 20.927 Q1845.36 17.8888 1839.93 17.8888 Q1836.09 17.8888 1831.79 19.2256 Q1827.54 20.5624 1822.68 23.2765 L1822.68 15.0127 Q1827.62 13.0277 1831.91 12.015 Q1836.21 11.0023 1839.77 11.0023 Q1849.17 11.0023 1854.76 15.7013 Q1860.35 20.4004 1860.35 28.2591 Q1860.35 31.9859 1858.93 35.3482 Q1857.56 38.6699 1853.87 43.2069 Q1852.86 44.3817 1847.43 50.0125 Q1842 55.6027 1832.12 65.6895 Z" fill="#000000" fill-rule="evenodd" fill-opacity="1"></path><path clip-path="url(#clip590)" d="M1895.35 17.4837 Q1889.03 17.4837 1885.83 23.7221 Q1882.67 29.92 1882.67 42.3968 Q1882.67 54.833 1885.83 61.0714 Q1889.03 67.2693 1895.35 67.2693 Q1901.71 67.2693 1904.87 61.0714 Q1908.07 54.833 1908.07 42.3968 Q1908.07 29.92 1904.87 23.7221 Q1901.71 17.4837 1895.35 17.4837 M1895.35 11.0023 Q1905.52 11.0023 1910.87 19.0636 Q1916.25 27.0843 1916.25 42.3968 Q1916.25 57.6687 1910.87 65.73 Q1905.52 73.7508 1895.35 73.7508 Q1885.18 73.7508 1879.79 65.73 Q1874.45 57.6687 1874.45 42.3968 Q1874.45 27.0843 1879.79 19.0636 Q1885.18 11.0023 1895.35 11.0023 Z" fill="#000000" fill-rule="evenodd" fill-opacity="1"></path><path clip-path="url(#clip590)" d="M1948.13 17.4837 Q1941.81 17.4837 1938.61 23.7221 Q1935.45 29.92 1935.45 42.3968 Q1935.45 54.833 1938.61 61.0714 Q1941.81 67.2693 1948.13 67.2693 Q1954.49 67.2693 1957.65 61.0714 Q1960.85 54.833 1960.85 42.3968 Q1960.85 29.92 1957.65 23.7221 Q1954.49 17.4837 1948.13 17.4837 M1948.13 11.0023 Q1958.3 11.0023 1963.65 19.0636 Q1969.04 27.0843 1969.04 42.3968 Q1969.04 57.6687 1963.65 65.73 Q1958.3 73.7508 1948.13 73.7508 Q1937.97 73.7508 1932.58 65.73 Q1927.23 57.6687 1927.23 42.3968 Q1927.23 27.0843 1932.58 19.0636 Q1937.97 11.0023 1948.13 11.0023 Z" fill="#000000" fill-rule="evenodd" fill-opacity="1"></path><path clip-path="url(#clip590)" d="M2000.92 17.4837 Q1994.6 17.4837 1991.4 23.7221 Q1988.24 29.92 1988.24 42.3968 Q1988.24 54.833 1991.4 61.0714 Q1994.6 67.2693 2000.92 67.2693 Q2007.28 67.2693 2010.44 61.0714 Q2013.64 54.833 2013.64 42.3968 Q2013.64 29.92 2010.44 23.7221 Q2007.28 17.4837 2000.92 17.4837 M2000.92 11.0023 Q2011.08 11.0023 2016.43 19.0636 Q2021.82 27.0843 2021.82 42.3968 Q2021.82 57.6687 2016.43 65.73 Q2011.08 73.7508 2000.92 73.7508 Q1990.75 73.7508 1985.36 65.73 Q1980.01 57.6687 1980.01 42.3968 Q1980.01 27.0843 1985.36 19.0636 Q1990.75 11.0023 2000.92 11.0023 Z" fill="#000000" fill-rule="evenodd" fill-opacity="1"></path><polyline clip-path="url(#clip592)" style="stroke:#009af9; stroke-linecap:butt; stroke-linejoin:round; stroke-width:4; stroke-opacity:1; fill:none" points="
  345.82,466.791 346.795,466.791 347.77,466.791 348.745,466.791 349.719,466.791 350.694,466.791 351.669,466.791 352.643,466.791 353.618,466.791 354.593,466.791 
  355.568,466.791 356.542,466.791 357.517,466.791 358.492,466.791 359.467,466.791 360.441,466.791 361.416,466.791 362.391,466.791 363.365,466.791 364.34,466.791 
  365.315,466.791 366.29,466.791 367.264,466.791 368.239,466.791 369.214,466.791 370.189,466.791 371.163,466.791 372.138,466.791 373.113,466.791 374.087,466.791 
  375.062,466.791 376.037,466.791 377.012,466.791 377.986,466.791 378.961,466.791 379.936,466.791 380.911,466.791 381.885,466.791 382.86,466.791 383.835,466.791 
  384.809,466.791 385.784,466.791 386.759,466.791 387.734,466.791 388.708,466.791 389.683,466.791 390.658,466.791 391.633,466.791 392.607,466.791 393.582,466.791 
  394.557,466.791 395.531,466.791 396.506,466.791 397.481,466.791 398.456,466.791 399.43,466.791 400.405,466.791 401.38,466.791 402.355,466.791 403.329,466.791 
  404.304,466.791 405.279,466.791 406.253,466.791 407.228,466.791 408.203,466.791 409.178,466.791 410.152,466.791 411.127,466.791 412.102,466.791 413.077,466.791 
  414.051,466.791 415.026,466.791 416.001,466.791 416.975,466.791 417.95,466.791 418.925,466.791 419.9,466.791 420.874,466.791 421.849,466.791 422.824,466.791 
  423.799,466.791 424.773,466.791 425.748,466.791 426.723,466.791 427.697,466.791 428.672,466.791 429.647,466.791 430.622,466.791 431.596,466.791 432.571,466.791 
  433.546,466.791 434.521,466.791 435.495,466.791 436.47,466.791 437.445,466.791 438.419,466.791 439.394,466.791 440.369,466.791 441.344,466.791 442.318,466.791 
  443.293,466.791 444.268,466.791 445.243,466.791 446.217,466.791 447.192,466.791 448.167,466.791 449.141,466.791 450.116,466.791 451.091,466.791 452.066,466.791 
  453.04,466.791 454.015,466.791 454.99,466.791 455.965,466.791 456.939,466.791 457.914,466.791 458.889,466.791 459.864,466.791 460.838,466.791 461.813,466.791 
  462.788,466.791 463.762,466.791 464.737,466.791 465.712,466.791 466.687,466.791 467.661,466.791 468.636,466.791 469.611,466.791 470.586,466.791 471.56,466.791 
  472.535,466.791 473.51,466.791 474.484,466.791 475.459,466.791 476.434,466.791 477.409,466.791 478.383,466.791 479.358,466.791 480.333,466.791 481.308,466.791 
  482.282,466.791 483.257,466.791 484.232,466.791 485.206,466.791 486.181,466.791 487.156,466.791 488.131,466.791 489.105,466.791 490.08,466.791 491.055,466.791 
  492.03,466.791 493.004,466.791 493.979,466.791 494.954,466.791 495.928,466.791 496.903,466.791 497.878,466.791 498.853,466.791 499.827,466.791 500.802,466.791 
  501.777,466.791 502.752,466.791 503.726,466.791 504.701,466.791 505.676,466.791 506.65,466.791 507.625,466.791 508.6,466.791 509.575,466.791 510.549,466.791 
  511.524,466.791 512.499,773.326 513.474,773.326 514.448,773.326 515.423,773.326 516.398,773.326 517.372,773.326 518.347,773.326 519.322,773.326 520.297,773.326 
  521.271,773.326 522.246,773.326 523.221,773.326 524.196,773.326 525.17,773.326 526.145,773.326 527.12,773.326 528.094,773.326 529.069,773.326 530.044,773.326 
  531.019,773.326 531.993,773.326 532.968,773.326 533.943,773.326 534.918,773.326 535.892,773.326 536.867,773.326 537.842,773.326 538.816,773.326 539.791,773.326 
  540.766,773.326 541.741,773.326 542.715,1079.86 543.69,1079.86 544.665,1079.86 545.64,1079.86 546.614,1079.86 547.589,1079.86 548.564,1079.86 549.538,1079.86 
  550.513,1079.86 551.488,1079.86 552.463,1079.86 553.437,1079.86 554.412,1079.86 555.387,1079.86 556.362,1079.86 557.336,1079.86 558.311,1079.86 559.286,1079.86 
  560.26,1079.86 561.235,1079.86 562.21,1079.86 563.185,1079.86 564.159,1079.86 565.134,1079.86 566.109,1079.86 567.084,1079.86 568.058,1079.86 569.033,1079.86 
  570.008,1079.86 570.982,1079.86 571.957,1079.86 572.932,1079.86 573.907,1079.86 574.881,1079.86 575.856,1079.86 576.831,1079.86 577.806,1079.86 578.78,1079.86 
  579.755,1079.86 580.73,1079.86 581.704,1079.86 582.679,1079.86 583.654,1079.86 584.629,1079.86 585.603,1079.86 586.578,1079.86 587.553,1079.86 588.528,1079.86 
  589.502,1079.86 590.477,1079.86 591.452,1079.86 592.427,1079.86 593.401,1079.86 594.376,1079.86 595.351,1079.86 596.325,1079.86 597.3,1079.86 598.275,1079.86 
  599.25,1079.86 600.224,1079.86 601.199,1079.86 602.174,1079.86 603.149,1079.86 604.123,1079.86 605.098,1079.86 606.073,1079.86 607.047,1079.86 608.022,1079.86 
  608.997,1079.86 609.972,1079.86 610.946,1079.86 611.921,1079.86 612.896,1079.86 613.871,1079.86 614.845,1079.86 615.82,1079.86 616.795,1079.86 617.769,1079.86 
  618.744,1079.86 619.719,1079.86 620.694,1079.86 621.668,1079.86 622.643,1079.86 623.618,1079.86 624.593,1079.86 625.567,1079.86 626.542,1079.86 627.517,1079.86 
  628.491,1079.86 629.466,1079.86 630.441,1079.86 631.416,1079.86 632.39,1079.86 633.365,1079.86 634.34,1079.86 635.315,1079.86 636.289,1079.86 637.264,1079.86 
  638.239,1079.86 639.213,1079.86 640.188,1079.86 641.163,1079.86 642.138,1079.86 643.112,1079.86 644.087,1079.86 645.062,1079.86 646.037,1079.86 647.011,1079.86 
  647.986,1079.86 648.961,1079.86 649.935,1079.86 650.91,1079.86 651.885,1079.86 652.86,1079.86 653.834,1079.86 654.809,1079.86 655.784,1079.86 656.759,1079.86 
  657.733,1386.4 658.708,1386.4 659.683,1386.4 660.657,1386.4 661.632,1386.4 662.607,1386.4 663.582,1386.4 664.556,1386.4 665.531,1386.4 666.506,1386.4 
  667.481,1386.4 668.455,1386.4 669.43,1386.4 670.405,1386.4 671.379,1386.4 672.354,1386.4 673.329,1386.4 674.304,1386.4 675.278,1386.4 676.253,1386.4 
  677.228,1386.4 678.203,1386.4 679.177,1386.4 680.152,1386.4 681.127,1386.4 682.101,1386.4 683.076,1386.4 684.051,1386.4 685.026,1386.4 686,1386.4 
  686.975,1386.4 687.95,1386.4 688.925,1386.4 689.899,1386.4 690.874,1386.4 691.849,1386.4 692.823,1386.4 693.798,1386.4 694.773,1386.4 695.748,1386.4 
  696.722,1386.4 697.697,1386.4 698.672,1386.4 699.647,1386.4 700.621,1386.4 701.596,1386.4 702.571,1386.4 703.545,1386.4 704.52,1386.4 705.495,1386.4 
  706.47,1386.4 707.444,1386.4 708.419,1386.4 709.394,1386.4 710.369,1386.4 711.343,1386.4 712.318,1386.4 713.293,1386.4 714.267,1386.4 715.242,1386.4 
  716.217,1386.4 717.192,1386.4 718.166,1386.4 719.141,1386.4 720.116,1386.4 721.091,1386.4 722.065,1386.4 723.04,1386.4 724.015,1386.4 724.99,1386.4 
  725.964,1386.4 726.939,1386.4 727.914,1386.4 728.888,1386.4 729.863,1386.4 730.838,1386.4 731.813,1386.4 732.787,1386.4 733.762,1386.4 734.737,1386.4 
  735.712,1386.4 736.686,1386.4 737.661,1386.4 738.636,1386.4 739.61,1386.4 740.585,1386.4 741.56,1386.4 742.535,1386.4 743.509,1386.4 744.484,1386.4 
  745.459,1386.4 746.434,1386.4 747.408,1386.4 748.383,1386.4 749.358,1386.4 750.332,1386.4 751.307,1386.4 752.282,1386.4 753.257,1386.4 754.231,1386.4 
  755.206,1386.4 756.181,1386.4 757.156,1386.4 758.13,1386.4 759.105,1386.4 760.08,1386.4 761.054,1386.4 762.029,1386.4 763.004,1386.4 763.979,1386.4 
  764.953,1386.4 765.928,1386.4 766.903,1386.4 767.878,1386.4 768.852,1386.4 769.827,1386.4 770.802,1386.4 771.776,1386.4 772.751,1386.4 773.726,1386.4 
  774.701,1386.4 775.675,1386.4 776.65,1386.4 777.625,1386.4 778.6,1386.4 779.574,1386.4 780.549,1386.4 781.524,1386.4 782.498,1386.4 783.473,1386.4 
  784.448,1386.4 785.423,1386.4 786.397,1386.4 787.372,1386.4 788.347,1386.4 789.322,1386.4 790.296,1386.4 791.271,1386.4 792.246,1386.4 793.22,1386.4 
  794.195,1386.4 795.17,1386.4 796.145,1386.4 797.119,1386.4 798.094,1386.4 799.069,1386.4 800.044,1386.4 801.018,1386.4 801.993,1386.4 802.968,1386.4 
  803.942,1386.4 804.917,1386.4 805.892,1386.4 806.867,1386.4 807.841,1386.4 808.816,1386.4 809.791,1386.4 810.766,1386.4 811.74,1386.4 812.715,1386.4 
  813.69,1386.4 814.664,1386.4 815.639,1386.4 816.614,1386.4 817.589,1386.4 818.563,1386.4 819.538,1386.4 820.513,1386.4 821.488,1386.4 822.462,1386.4 
  823.437,1386.4 824.412,1386.4 825.386,1386.4 826.361,1386.4 827.336,1386.4 828.311,1386.4 829.285,1386.4 830.26,1386.4 831.235,1386.4 832.21,1386.4 
  833.184,1386.4 834.159,1386.4 835.134,1386.4 836.108,1386.4 837.083,1386.4 838.058,1386.4 839.033,1386.4 840.007,1386.4 840.982,1386.4 841.957,1386.4 
  842.932,1386.4 843.906,1386.4 844.881,1386.4 845.856,1386.4 846.83,1386.4 847.805,1386.4 848.78,1386.4 849.755,1386.4 850.729,1386.4 851.704,1386.4 
  852.679,1386.4 853.654,1386.4 854.628,1386.4 855.603,1386.4 856.578,1386.4 857.553,1386.4 858.527,1386.4 859.502,1386.4 860.477,1386.4 861.451,1386.4 
  862.426,1386.4 863.401,1386.4 864.376,1386.4 865.35,1386.4 866.325,1386.4 867.3,1386.4 868.275,1386.4 869.249,1386.4 870.224,1386.4 871.199,1386.4 
  872.173,1386.4 873.148,1386.4 874.123,1386.4 875.098,1386.4 876.072,1386.4 877.047,1386.4 878.022,1386.4 878.997,1386.4 879.971,1386.4 880.946,1386.4 
  881.921,1386.4 882.895,1386.4 883.87,1386.4 884.845,1386.4 885.82,1386.4 886.794,1386.4 887.769,1386.4 888.744,1386.4 889.719,1386.4 890.693,1386.4 
  891.668,1386.4 892.643,1079.86 893.617,1079.86 894.592,1079.86 895.567,1079.86 896.542,1079.86 897.516,1079.86 898.491,1079.86 899.466,1079.86 900.441,1079.86 
  901.415,1079.86 902.39,1079.86 903.365,1079.86 904.339,1079.86 905.314,1079.86 906.289,1079.86 907.264,1079.86 908.238,1079.86 909.213,1079.86 910.188,1079.86 
  911.163,1079.86 912.137,1079.86 913.112,1079.86 914.087,1079.86 915.061,1079.86 916.036,1079.86 917.011,1079.86 917.986,1079.86 918.96,1079.86 919.935,1079.86 
  920.91,1079.86 921.885,1079.86 922.859,1079.86 923.834,1079.86 924.809,1079.86 925.783,1079.86 926.758,1079.86 927.733,1079.86 928.708,1079.86 929.682,1079.86 
  930.657,1079.86 931.632,1079.86 932.607,1079.86 933.581,1079.86 934.556,1079.86 935.531,1079.86 936.505,1079.86 937.48,1079.86 938.455,1079.86 939.43,1079.86 
  940.404,1079.86 941.379,1079.86 942.354,1079.86 943.329,1079.86 944.303,1079.86 945.278,1079.86 946.253,1079.86 947.227,1079.86 948.202,1079.86 949.177,1079.86 
  950.152,1079.86 951.126,1079.86 952.101,1079.86 953.076,1079.86 954.051,1079.86 955.025,1079.86 956,1079.86 956.975,1079.86 957.949,1079.86 958.924,1079.86 
  959.899,1079.86 960.874,1079.86 961.848,1079.86 962.823,1079.86 963.798,1079.86 964.773,1079.86 965.747,1079.86 966.722,1079.86 967.697,1079.86 968.671,1079.86 
  969.646,1079.86 970.621,1079.86 971.596,1079.86 972.57,1079.86 973.545,1079.86 974.52,1079.86 975.495,1079.86 976.469,1079.86 977.444,1079.86 978.419,1079.86 
  979.393,1079.86 980.368,1079.86 981.343,1079.86 982.318,1079.86 983.292,1079.86 984.267,1079.86 985.242,1079.86 986.217,1079.86 987.191,1079.86 988.166,1079.86 
  989.141,1079.86 990.116,1079.86 991.09,1079.86 992.065,1079.86 993.04,1079.86 994.014,1079.86 994.989,773.326 995.964,773.326 996.939,773.326 997.913,773.326 
  998.888,773.326 999.863,773.326 1000.84,773.326 1001.81,773.326 1002.79,773.326 1003.76,773.326 1004.74,773.326 1005.71,773.326 1006.69,773.326 1007.66,773.326 
  1008.64,773.326 1009.61,773.326 1010.58,773.326 1011.56,773.326 1012.53,773.326 1013.51,773.326 1014.48,773.326 1015.46,773.326 1016.43,773.326 1017.41,773.326 
  1018.38,773.326 1019.36,773.326 1020.33,773.326 1021.31,773.326 1022.28,773.326 1023.26,773.326 1024.23,773.326 1025.21,773.326 1026.18,773.326 1027.16,773.326 
  1028.13,773.326 1029.1,773.326 1030.08,773.326 1031.05,773.326 1032.03,773.326 1033,773.326 1033.98,773.326 1034.95,773.326 1035.93,773.326 1036.9,466.791 
  1037.88,466.791 1038.85,466.791 1039.83,466.791 1040.8,466.791 1041.78,466.791 1042.75,466.791 1043.73,466.791 1044.7,466.791 1045.67,466.791 1046.65,466.791 
  1047.62,466.791 1048.6,466.791 1049.57,466.791 1050.55,466.791 1051.52,466.791 1052.5,466.791 1053.47,466.791 1054.45,466.791 1055.42,466.791 1056.4,466.791 
  1057.37,466.791 1058.35,466.791 1059.32,466.791 1060.3,466.791 1061.27,466.791 1062.25,466.791 1063.22,466.791 1064.19,466.791 1065.17,466.791 1066.14,466.791 
  1067.12,466.791 1068.09,466.791 1069.07,466.791 1070.04,466.791 1071.02,466.791 1071.99,466.791 1072.97,466.791 1073.94,466.791 1074.92,466.791 1075.89,466.791 
  1076.87,466.791 1077.84,466.791 1078.82,466.791 1079.79,466.791 1080.77,466.791 1081.74,466.791 1082.71,466.791 1083.69,466.791 1084.66,466.791 1085.64,466.791 
  1086.61,466.791 1087.59,466.791 1088.56,466.791 1089.54,466.791 1090.51,466.791 1091.49,466.791 1092.46,466.791 1093.44,466.791 1094.41,466.791 1095.39,466.791 
  1096.36,466.791 1097.34,466.791 1098.31,466.791 1099.29,466.791 1100.26,466.791 1101.23,466.791 1102.21,466.791 1103.18,466.791 1104.16,466.791 1105.13,466.791 
  1106.11,466.791 1107.08,466.791 1108.06,466.791 1109.03,466.791 1110.01,466.791 1110.98,466.791 1111.96,466.791 1112.93,466.791 1113.91,466.791 1114.88,466.791 
  1115.86,466.791 1116.83,466.791 1117.8,466.791 1118.78,466.791 1119.75,466.791 1120.73,466.791 1121.7,466.791 1122.68,160.256 1123.65,160.256 1124.63,160.256 
  1125.6,160.256 1126.58,160.256 1127.55,160.256 1128.53,160.256 1129.5,160.256 1130.48,160.256 1131.45,160.256 1132.43,160.256 1133.4,160.256 1134.38,160.256 
  1135.35,160.256 1136.32,160.256 1137.3,160.256 1138.27,160.256 1139.25,160.256 1140.22,160.256 1141.2,160.256 1142.17,160.256 1143.15,160.256 1144.12,160.256 
  1145.1,160.256 1146.07,160.256 1147.05,160.256 1148.02,160.256 1149,160.256 1149.97,160.256 1150.95,160.256 1151.92,160.256 1152.9,160.256 1153.87,160.256 
  1154.84,160.256 1155.82,160.256 1156.79,160.256 1157.77,160.256 1158.74,160.256 1159.72,160.256 1160.69,160.256 1161.67,160.256 1162.64,160.256 1163.62,160.256 
  1164.59,160.256 1165.57,160.256 1166.54,160.256 1167.52,160.256 1168.49,160.256 1169.47,160.256 1170.44,160.256 1171.41,160.256 1172.39,160.256 1173.36,160.256 
  1174.34,160.256 1175.31,160.256 1176.29,160.256 1177.26,160.256 1178.24,160.256 1179.21,160.256 1180.19,160.256 1181.16,160.256 1182.14,160.256 1183.11,160.256 
  1184.09,160.256 1185.06,160.256 1186.04,160.256 1187.01,160.256 1187.99,160.256 1188.96,160.256 1189.93,160.256 1190.91,160.256 1191.88,160.256 1192.86,160.256 
  1193.83,160.256 1194.81,160.256 1195.78,160.256 1196.76,160.256 1197.73,160.256 1198.71,160.256 1199.68,160.256 1200.66,160.256 1201.63,160.256 1202.61,160.256 
  1203.58,160.256 1204.56,160.256 1205.53,160.256 1206.51,160.256 1207.48,160.256 1208.45,160.256 1209.43,160.256 1210.4,160.256 1211.38,160.256 1212.35,160.256 
  1213.33,160.256 1214.3,160.256 1215.28,160.256 1216.25,160.256 1217.23,160.256 1218.2,160.256 1219.18,160.256 1220.15,160.256 1221.13,160.256 1222.1,160.256 
  1223.08,160.256 1224.05,160.256 1225.02,160.256 1226,160.256 1226.97,160.256 1227.95,160.256 1228.92,160.256 1229.9,160.256 1230.87,160.256 1231.85,160.256 
  1232.82,160.256 1233.8,160.256 1234.77,160.256 1235.75,160.256 1236.72,160.256 1237.7,160.256 1238.67,160.256 1239.65,160.256 1240.62,160.256 1241.6,160.256 
  1242.57,160.256 1243.54,160.256 1244.52,160.256 1245.49,160.256 1246.47,160.256 1247.44,466.791 1248.42,466.791 1249.39,466.791 1250.37,773.326 1251.34,773.326 
  1252.32,773.326 1253.29,773.326 1254.27,773.326 1255.24,773.326 1256.22,773.326 1257.19,773.326 1258.17,773.326 1259.14,773.326 1260.12,773.326 1261.09,773.326 
  1262.06,773.326 1263.04,773.326 1264.01,773.326 1264.99,773.326 1265.96,773.326 1266.94,773.326 1267.91,773.326 1268.89,773.326 1269.86,773.326 1270.84,773.326 
  1271.81,773.326 1272.79,773.326 1273.76,773.326 1274.74,773.326 1275.71,773.326 1276.69,773.326 1277.66,773.326 1278.63,773.326 1279.61,773.326 1280.58,773.326 
  1281.56,773.326 1282.53,773.326 1283.51,773.326 1284.48,1079.86 1285.46,1079.86 1286.43,1079.86 1287.41,1079.86 1288.38,1079.86 1289.36,1079.86 1290.33,1079.86 
  1291.31,1079.86 1292.28,1079.86 1293.26,1079.86 1294.23,1079.86 1295.21,1079.86 1296.18,1079.86 1297.15,1079.86 1298.13,1079.86 1299.1,1079.86 1300.08,1079.86 
  1301.05,1079.86 1302.03,1079.86 1303,1079.86 1303.98,1079.86 1304.95,1079.86 1305.93,1079.86 1306.9,1079.86 1307.88,1079.86 1308.85,1079.86 1309.83,1079.86 
  1310.8,1079.86 1311.78,1079.86 1312.75,1079.86 1313.73,1079.86 1314.7,1079.86 1315.67,1079.86 1316.65,1079.86 1317.62,1079.86 1318.6,1079.86 1319.57,1079.86 
  1320.55,1079.86 1321.52,1079.86 1322.5,1079.86 1323.47,1079.86 1324.45,1079.86 1325.42,1079.86 1326.4,1079.86 1327.37,1079.86 1328.35,1079.86 1329.32,1079.86 
  1330.3,1079.86 1331.27,1079.86 1332.25,1079.86 1333.22,1079.86 1334.19,1079.86 1335.17,1079.86 1336.14,1079.86 1337.12,1079.86 1338.09,1079.86 1339.07,1079.86 
  1340.04,1079.86 1341.02,1079.86 1341.99,1079.86 1342.97,1079.86 1343.94,1079.86 1344.92,1079.86 1345.89,1079.86 1346.87,1079.86 1347.84,1079.86 1348.82,1079.86 
  1349.79,1079.86 1350.76,1079.86 1351.74,1079.86 1352.71,1079.86 1353.69,1079.86 1354.66,1079.86 1355.64,1079.86 1356.61,1079.86 1357.59,1079.86 1358.56,1079.86 
  1359.54,1079.86 1360.51,1079.86 1361.49,1079.86 1362.46,1079.86 1363.44,1079.86 1364.41,1079.86 1365.39,1079.86 1366.36,1079.86 1367.34,1079.86 1368.31,1079.86 
  1369.28,1079.86 1370.26,1079.86 1371.23,1079.86 1372.21,1079.86 1373.18,1079.86 1374.16,1079.86 1375.13,1079.86 1376.11,1079.86 1377.08,1079.86 1378.06,1079.86 
  1379.03,1079.86 1380.01,1079.86 1380.98,1079.86 1381.96,1079.86 1382.93,1079.86 1383.91,1079.86 1384.88,1079.86 1385.86,1079.86 1386.83,1079.86 1387.8,1079.86 
  1388.78,1079.86 1389.75,1079.86 1390.73,1079.86 1391.7,1079.86 1392.68,1079.86 1393.65,1079.86 1394.63,1079.86 1395.6,1079.86 1396.58,1079.86 1397.55,1079.86 
  1398.53,1079.86 1399.5,1079.86 1400.48,1079.86 1401.45,1386.4 1402.43,1386.4 1403.4,1386.4 1404.37,1386.4 1405.35,1386.4 1406.32,1386.4 1407.3,1386.4 
  1408.27,1386.4 1409.25,1386.4 1410.22,1386.4 1411.2,1386.4 1412.17,1386.4 1413.15,1386.4 1414.12,1386.4 1415.1,1386.4 1416.07,1386.4 1417.05,1386.4 
  1418.02,1386.4 1419,1386.4 1419.97,1386.4 1420.95,1386.4 1421.92,1386.4 1422.89,1386.4 1423.87,1386.4 1424.84,1386.4 1425.82,1386.4 1426.79,1386.4 
  1427.77,1386.4 1428.74,1386.4 1429.72,1386.4 1430.69,1386.4 1431.67,1386.4 1432.64,1386.4 1433.62,1386.4 1434.59,1386.4 1435.57,1386.4 1436.54,1386.4 
  1437.52,1386.4 1438.49,1386.4 1439.47,1386.4 1440.44,1386.4 1441.41,1386.4 1442.39,1386.4 1443.36,1386.4 1444.34,1386.4 1445.31,1386.4 1446.29,1386.4 
  1447.26,1386.4 1448.24,1386.4 1449.21,1386.4 1450.19,1386.4 1451.16,1386.4 1452.14,1386.4 1453.11,1386.4 1454.09,1386.4 1455.06,1386.4 1456.04,1386.4 
  1457.01,1386.4 1457.98,1386.4 1458.96,1386.4 1459.93,1386.4 1460.91,1386.4 1461.88,1386.4 1462.86,1386.4 1463.83,1386.4 1464.81,1386.4 1465.78,1386.4 
  1466.76,1386.4 1467.73,1386.4 1468.71,1386.4 1469.68,1386.4 1470.66,1386.4 1471.63,1386.4 1472.61,1386.4 1473.58,1386.4 1474.56,1386.4 1475.53,1386.4 
  1476.5,1386.4 1477.48,1386.4 1478.45,1386.4 1479.43,1386.4 1480.4,1386.4 1481.38,1386.4 1482.35,1386.4 1483.33,1386.4 1484.3,1386.4 1485.28,1386.4 
  1486.25,1386.4 1487.23,1386.4 1488.2,1079.86 1489.18,1079.86 1490.15,1079.86 1491.13,1079.86 1492.1,1079.86 1493.08,1079.86 1494.05,1079.86 1495.02,1079.86 
  1496,1079.86 1496.97,1079.86 1497.95,1079.86 1498.92,1079.86 1499.9,1079.86 1500.87,1079.86 1501.85,1079.86 1502.82,1079.86 1503.8,1079.86 1504.77,1079.86 
  1505.75,1079.86 1506.72,1079.86 1507.7,1079.86 1508.67,1079.86 1509.65,1079.86 1510.62,1079.86 1511.59,1079.86 1512.57,1079.86 1513.54,1079.86 1514.52,1079.86 
  1515.49,1079.86 1516.47,1079.86 1517.44,1079.86 1518.42,1079.86 1519.39,1079.86 1520.37,1079.86 1521.34,1079.86 1522.32,1079.86 1523.29,1079.86 1524.27,1079.86 
  1525.24,1079.86 1526.22,1079.86 1527.19,1079.86 1528.17,1079.86 1529.14,1079.86 1530.11,1079.86 1531.09,1079.86 1532.06,1079.86 1533.04,1079.86 1534.01,1079.86 
  1534.99,1079.86 1535.96,1079.86 1536.94,1079.86 1537.91,1079.86 1538.89,1079.86 1539.86,1079.86 1540.84,1079.86 1541.81,1079.86 1542.79,1079.86 1543.76,1079.86 
  1544.74,1079.86 1545.71,1079.86 1546.69,1079.86 1547.66,1079.86 1548.63,1079.86 1549.61,1079.86 1550.58,1079.86 1551.56,1079.86 1552.53,1079.86 1553.51,1079.86 
  1554.48,1079.86 1555.46,1079.86 1556.43,1079.86 1557.41,1079.86 1558.38,1079.86 1559.36,1079.86 1560.33,1079.86 1561.31,1079.86 1562.28,1079.86 1563.26,1079.86 
  1564.23,1079.86 1565.2,1079.86 1566.18,1079.86 1567.15,1079.86 1568.13,1079.86 1569.1,1079.86 1570.08,1079.86 1571.05,1079.86 1572.03,1079.86 1573,1079.86 
  1573.98,1079.86 1574.95,1079.86 1575.93,1079.86 1576.9,1079.86 1577.88,1079.86 1578.85,1079.86 1579.83,1079.86 1580.8,1079.86 1581.78,1079.86 1582.75,1079.86 
  1583.72,1079.86 1584.7,1079.86 1585.67,1079.86 1586.65,1079.86 1587.62,1079.86 1588.6,1079.86 1589.57,1079.86 1590.55,1079.86 1591.52,1079.86 1592.5,1079.86 
  1593.47,1079.86 1594.45,1079.86 1595.42,1079.86 1596.4,1079.86 1597.37,1079.86 1598.35,1079.86 1599.32,1079.86 1600.3,1079.86 1601.27,1079.86 1602.24,1079.86 
  1603.22,1079.86 1604.19,1079.86 1605.17,1079.86 1606.14,1079.86 1607.12,1079.86 1608.09,1079.86 1609.07,1079.86 1610.04,1079.86 1611.02,1079.86 1611.99,1079.86 
  1612.97,1079.86 1613.94,1079.86 1614.92,1079.86 1615.89,1079.86 1616.87,1079.86 1617.84,1079.86 1618.82,1079.86 1619.79,1079.86 1620.76,1079.86 1621.74,1079.86 
  1622.71,1079.86 1623.69,1079.86 1624.66,1079.86 1625.64,1079.86 1626.61,1079.86 1627.59,1079.86 1628.56,1079.86 1629.54,1079.86 1630.51,1079.86 1631.49,1079.86 
  1632.46,1079.86 1633.44,1079.86 1634.41,1079.86 1635.39,1079.86 1636.36,1079.86 1637.33,1079.86 1638.31,1079.86 1639.28,1079.86 1640.26,1079.86 1641.23,1079.86 
  1642.21,1079.86 1643.18,1079.86 1644.16,1079.86 1645.13,1079.86 1646.11,1079.86 1647.08,1079.86 1648.06,1079.86 1649.03,1079.86 1650.01,1079.86 1650.98,1079.86 
  1651.96,1079.86 1652.93,1079.86 1653.91,1079.86 1654.88,773.326 1655.85,773.326 1656.83,773.326 1657.8,773.326 1658.78,773.326 1659.75,773.326 1660.73,773.326 
  1661.7,773.326 1662.68,773.326 1663.65,773.326 1664.63,773.326 1665.6,773.326 1666.58,773.326 1667.55,773.326 1668.53,773.326 1669.5,773.326 1670.48,773.326 
  1671.45,773.326 1672.43,773.326 1673.4,773.326 1674.37,773.326 1675.35,773.326 1676.32,773.326 1677.3,773.326 1678.27,773.326 1679.25,773.326 1680.22,773.326 
  1681.2,773.326 1682.17,773.326 1683.15,773.326 1684.12,773.326 1685.1,773.326 1686.07,773.326 1687.05,773.326 1688.02,773.326 1689,773.326 1689.97,773.326 
  1690.94,773.326 1691.92,773.326 1692.89,773.326 1693.87,773.326 1694.84,773.326 1695.82,773.326 1696.79,773.326 1697.77,773.326 1698.74,773.326 1699.72,773.326 
  1700.69,773.326 1701.67,773.326 1702.64,773.326 1703.62,773.326 1704.59,773.326 1705.57,773.326 1706.54,773.326 1707.52,773.326 1708.49,773.326 1709.46,773.326 
  1710.44,773.326 1711.41,773.326 1712.39,773.326 1713.36,773.326 1714.34,773.326 1715.31,773.326 1716.29,773.326 1717.26,773.326 1718.24,773.326 1719.21,773.326 
  1720.19,773.326 1721.16,773.326 1722.14,773.326 1723.11,773.326 1724.09,773.326 1725.06,773.326 1726.04,773.326 1727.01,773.326 1727.98,773.326 1728.96,773.326 
  1729.93,773.326 1730.91,773.326 1731.88,773.326 1732.86,773.326 1733.83,466.791 1734.81,466.791 1735.78,466.791 1736.76,466.791 1737.73,466.791 1738.71,466.791 
  1739.68,466.791 1740.66,466.791 1741.63,466.791 1742.61,466.791 1743.58,466.791 1744.55,466.791 1745.53,466.791 1746.5,466.791 1747.48,466.791 1748.45,466.791 
  1749.43,466.791 1750.4,466.791 1751.38,466.791 1752.35,466.791 1753.33,773.326 1754.3,773.326 1755.28,773.326 1756.25,773.326 1757.23,773.326 1758.2,773.326 
  1759.18,773.326 1760.15,773.326 1761.13,773.326 1762.1,773.326 1763.07,773.326 1764.05,773.326 1765.02,773.326 1766,773.326 1766.97,773.326 1767.95,773.326 
  1768.92,773.326 1769.9,773.326 1770.87,773.326 1771.85,773.326 1772.82,773.326 1773.8,773.326 1774.77,773.326 1775.75,773.326 1776.72,773.326 1777.7,773.326 
  1778.67,466.791 1779.65,466.791 1780.62,466.791 1781.59,466.791 1782.57,466.791 1783.54,466.791 1784.52,466.791 1785.49,466.791 1786.47,466.791 1787.44,466.791 
  1788.42,466.791 1789.39,466.791 1790.37,466.791 1791.34,466.791 1792.32,466.791 1793.29,466.791 1794.27,466.791 1795.24,466.791 1796.22,466.791 1797.19,466.791 
  1798.16,466.791 1799.14,466.791 1800.11,466.791 1801.09,466.791 1802.06,466.791 1803.04,466.791 1804.01,466.791 1804.99,466.791 1805.96,466.791 1806.94,466.791 
  1807.91,466.791 1808.89,466.791 1809.86,466.791 1810.84,466.791 1811.81,466.791 1812.79,466.791 1813.76,466.791 1814.74,466.791 1815.71,466.791 1816.68,466.791 
  1817.66,466.791 1818.63,466.791 1819.61,466.791 1820.58,466.791 1821.56,466.791 1822.53,466.791 1823.51,466.791 1824.48,466.791 1825.46,466.791 1826.43,466.791 
  1827.41,466.791 1828.38,466.791 1829.36,466.791 1830.33,466.791 1831.31,466.791 1832.28,466.791 1833.26,466.791 1834.23,466.791 1835.2,466.791 1836.18,466.791 
  1837.15,466.791 1838.13,466.791 1839.1,466.791 1840.08,466.791 1841.05,466.791 1842.03,466.791 1843,466.791 1843.98,466.791 1844.95,466.791 1845.93,466.791 
  1846.9,466.791 1847.88,466.791 1848.85,466.791 1849.83,466.791 1850.8,466.791 1851.77,466.791 1852.75,466.791 1853.72,466.791 1854.7,466.791 1855.67,466.791 
  1856.65,466.791 1857.62,466.791 1858.6,466.791 1859.57,466.791 1860.55,466.791 1861.52,466.791 1862.5,466.791 1863.47,466.791 1864.45,466.791 1865.42,466.791 
  1866.4,466.791 1867.37,466.791 1868.35,466.791 1869.32,466.791 1870.29,466.791 1871.27,466.791 1872.24,466.791 1873.22,466.791 1874.19,160.256 1875.17,160.256 
  1876.14,160.256 1877.12,160.256 1878.09,160.256 1879.07,160.256 1880.04,160.256 1881.02,160.256 1881.99,160.256 1882.97,160.256 1883.94,160.256 1884.92,160.256 
  1885.89,160.256 1886.87,160.256 1887.84,160.256 1888.81,160.256 1889.79,160.256 1890.76,160.256 1891.74,160.256 1892.71,160.256 1893.69,160.256 1894.66,160.256 
  1895.64,160.256 1896.61,160.256 1897.59,160.256 1898.56,160.256 1899.54,160.256 1900.51,160.256 1901.49,160.256 1902.46,160.256 1903.44,160.256 1904.41,160.256 
  1905.39,160.256 1906.36,160.256 1907.33,160.256 1908.31,160.256 1909.28,160.256 1910.26,160.256 1911.23,160.256 1912.21,160.256 1913.18,160.256 1914.16,160.256 
  1915.13,160.256 1916.11,160.256 1917.08,160.256 1918.06,160.256 1919.03,160.256 1920.01,160.256 1920.98,160.256 1921.96,160.256 1922.93,160.256 1923.9,160.256 
  1924.88,160.256 1925.85,160.256 1926.83,160.256 1927.8,160.256 1928.78,160.256 1929.75,160.256 1930.73,160.256 1931.7,160.256 1932.68,160.256 1933.65,160.256 
  1934.63,160.256 1935.6,160.256 1936.58,160.256 1937.55,160.256 1938.53,160.256 1939.5,160.256 1940.48,160.256 1941.45,160.256 1942.42,160.256 1943.4,160.256 
  1944.37,160.256 1945.35,160.256 1946.32,160.256 1947.3,160.256 1948.27,160.256 1949.25,160.256 1950.22,160.256 1951.2,160.256 1952.17,160.256 1953.15,160.256 
  1954.12,160.256 1955.1,160.256 1956.07,160.256 1957.05,160.256 1958.02,160.256 1959,160.256 1959.97,160.256 1960.94,160.256 1961.92,160.256 1962.89,160.256 
  1963.87,160.256 1964.84,160.256 1965.82,160.256 1966.79,160.256 1967.77,160.256 1968.74,160.256 1969.72,160.256 1970.69,160.256 1971.67,160.256 1972.64,160.256 
  1973.62,160.256 1974.59,160.256 1975.57,160.256 1976.54,160.256 1977.51,160.256 1978.49,160.256 1979.46,160.256 1980.44,160.256 1981.41,160.256 1982.39,160.256 
  1983.36,160.256 1984.34,160.256 1985.31,160.256 1986.29,160.256 1987.26,160.256 1988.24,160.256 1989.21,160.256 1990.19,160.256 1991.16,160.256 1992.14,160.256 
  1993.11,160.256 1994.09,160.256 1995.06,160.256 1996.03,160.256 1997.01,160.256 1997.98,160.256 1998.96,160.256 1999.93,160.256 2000.91,160.256 2001.88,160.256 
  2002.86,160.256 2003.83,160.256 2004.81,160.256 2005.78,160.256 2006.76,160.256 2007.73,160.256 2008.71,160.256 2009.68,160.256 2010.66,160.256 2011.63,160.256 
  2012.61,160.256 2013.58,160.256 2014.55,160.256 2015.53,160.256 2016.5,160.256 2017.48,160.256 2018.45,160.256 2019.43,160.256 2020.4,160.256 2021.38,160.256 
  2022.35,160.256 2023.33,160.256 2024.3,160.256 2025.28,160.256 2026.25,160.256 2027.23,160.256 2028.2,160.256 2029.18,160.256 2030.15,160.256 2031.12,466.791 
  2032.1,466.791 2033.07,466.791 2034.05,466.791 2035.02,466.791 2036,466.791 2036.97,466.791 2037.95,466.791 2038.92,466.791 2039.9,466.791 2040.87,466.791 
  2041.85,466.791 2042.82,466.791 2043.8,466.791 2044.77,466.791 2045.75,466.791 2046.72,466.791 2047.7,466.791 2048.67,466.791 2049.64,466.791 2050.62,466.791 
  2051.59,466.791 2052.57,466.791 2053.54,466.791 2054.52,466.791 2055.49,466.791 2056.47,466.791 2057.44,466.791 2058.42,466.791 2059.39,466.791 2060.37,466.791 
  2061.34,466.791 2062.32,466.791 2063.29,466.791 2064.27,466.791 2065.24,466.791 2066.22,466.791 2067.19,466.791 2068.16,466.791 2069.14,466.791 2070.11,466.791 
  2071.09,466.791 2072.06,466.791 2073.04,466.791 2074.01,466.791 2074.99,466.791 2075.96,466.791 2076.94,466.791 2077.91,466.791 2078.89,466.791 2079.86,466.791 
  2080.84,466.791 2081.81,466.791 2082.79,466.791 2083.76,466.791 2084.73,466.791 2085.71,466.791 2086.68,466.791 2087.66,466.791 2088.63,466.791 2089.61,466.791 
  2090.58,466.791 2091.56,466.791 2092.53,466.791 2093.51,466.791 2094.48,466.791 2095.46,466.791 2096.43,466.791 2097.41,466.791 2098.38,466.791 2099.36,466.791 
  2100.33,466.791 2101.31,466.791 2102.28,466.791 2103.25,466.791 2104.23,466.791 2105.2,466.791 2106.18,466.791 2107.15,466.791 2108.13,466.791 2109.1,466.791 
  2110.08,466.791 2111.05,466.791 2112.03,466.791 2113,466.791 2113.98,466.791 2114.95,466.791 2115.93,466.791 2116.9,466.791 2117.88,466.791 2118.85,466.791 
  2119.83,466.791 2120.8,466.791 2121.77,466.791 2122.75,466.791 2123.72,466.791 2124.7,466.791 2125.67,466.791 2126.65,466.791 2127.62,466.791 2128.6,466.791 
  2129.57,466.791 2130.55,466.791 2131.52,466.791 2132.5,466.791 2133.47,466.791 2134.45,466.791 2135.42,466.791 2136.4,466.791 2137.37,466.791 2138.35,466.791 
  2139.32,466.791 2140.29,466.791 2141.27,466.791 2142.24,466.791 2143.22,466.791 2144.19,466.791 2145.17,466.791 2146.14,466.791 2147.12,466.791 2148.09,466.791 
  2149.07,466.791 2150.04,466.791 2151.02,466.791 2151.99,466.791 2152.97,466.791 2153.94,466.791 2154.92,466.791 2155.89,466.791 2156.86,466.791 2157.84,466.791 
  2158.81,466.791 2159.79,466.791 2160.76,466.791 2161.74,466.791 2162.71,466.791 2163.69,466.791 2164.66,466.791 2165.64,466.791 2166.61,466.791 2167.59,466.791 
  2168.56,466.791 2169.54,466.791 2170.51,466.791 2171.49,466.791 2172.46,466.791 2173.44,466.791 2174.41,466.791 2175.38,466.791 2176.36,466.791 2177.33,160.256 
  2178.31,160.256 2179.28,160.256 2180.26,160.256 2181.23,160.256 2182.21,160.256 2183.18,160.256 2184.16,160.256 2185.13,160.256 2186.11,160.256 2187.08,160.256 
  2188.06,160.256 2189.03,160.256 2190.01,160.256 2190.98,466.791 2191.96,466.791 2192.93,466.791 2193.9,466.791 2194.88,773.326 2195.85,773.326 2196.83,773.326 
  2197.8,773.326 2198.78,773.326 2199.75,773.326 2200.73,773.326 2201.7,773.326 2202.68,773.326 2203.65,773.326 2204.63,773.326 2205.6,773.326 2206.58,773.326 
  2207.55,773.326 2208.53,773.326 2209.5,773.326 2210.47,773.326 2211.45,773.326 2212.42,773.326 2213.4,773.326 2214.37,773.326 2215.35,773.326 2216.32,773.326 
  2217.3,773.326 2218.27,773.326 2219.25,773.326 2220.22,773.326 2221.2,773.326 2222.17,773.326 2223.15,773.326 2224.12,773.326 2225.1,773.326 2226.07,773.326 
  2227.05,773.326 2228.02,773.326 2228.99,773.326 2229.97,773.326 2230.94,773.326 2231.92,773.326 2232.89,773.326 2233.87,773.326 2234.84,773.326 2235.82,773.326 
  2236.79,773.326 2237.77,773.326 2238.74,773.326 2239.72,773.326 2240.69,773.326 2241.67,773.326 2242.64,773.326 2243.62,773.326 2244.59,773.326 2245.57,773.326 
  2246.54,773.326 2247.51,773.326 2248.49,773.326 2249.46,773.326 2250.44,773.326 2251.41,773.326 2252.39,773.326 2253.36,773.326 2254.34,773.326 2255.31,773.326 
  2256.29,773.326 2257.26,773.326 2258.24,773.326 2259.21,773.326 2260.19,773.326 2261.16,773.326 2262.14,773.326 2263.11,773.326 2264.08,773.326 2265.06,773.326 
  2266.03,773.326 2267.01,773.326 2267.98,773.326 2268.96,773.326 2269.93,773.326 2270.91,773.326 2271.88,773.326 2272.86,773.326 2273.83,773.326 2274.81,773.326 
  2275.78,773.326 2276.76,773.326 2277.73,773.326 2278.71,773.326 2279.68,773.326 2280.66,773.326 2281.63,773.326 2282.6,773.326 2283.58,773.326 2284.55,773.326 
  2285.53,773.326 2286.5,773.326 2287.48,773.326 2288.45,773.326 2289.43,773.326 2290.4,773.326 2291.38,773.326 2292.35,773.326 2293.33,773.326 2294.3,773.326 
  
  "></polyline>
<path clip-path="url(#clip590)" d="
M1552.75 1379.86 L2283.91 1379.86 L2283.91 1276.18 L1552.75 1276.18  Z
  " fill="#ffffff" fill-rule="evenodd" fill-opacity="1"></path>
<polyline clip-path="url(#clip590)" style="stroke:#000000; stroke-linecap:butt; stroke-linejoin:round; stroke-width:4; stroke-opacity:1; fill:none" points="
  1552.75,1379.86 2283.91,1379.86 2283.91,1276.18 1552.75,1276.18 1552.75,1379.86 
  "></polyline>
<polyline clip-path="url(#clip590)" style="stroke:#009af9; stroke-linecap:butt; stroke-linejoin:round; stroke-width:4; stroke-opacity:1; fill:none" points="
  1576.75,1328.02 1720.75,1328.02 
  "></polyline>
<path clip-path="url(#clip590)" d="M1749.43 1314.58 L1749.43 1327.56 L1755.31 1327.56 Q1758.57 1327.56 1760.36 1325.88 Q1762.14 1324.19 1762.14 1321.06 Q1762.14 1317.96 1760.36 1316.27 Q1758.57 1314.58 1755.31 1314.58 L1749.43 1314.58 M1744.75 1310.74 L1755.31 1310.74 Q1761.12 1310.74 1764.08 1313.38 Q1767.07 1315.99 1767.07 1321.06 Q1767.07 1326.18 1764.08 1328.79 Q1761.12 1331.41 1755.31 1331.41 L1749.43 1331.41 L1749.43 1345.3 L1744.75 1345.3 L1744.75 1310.74 Z" fill="#000000" fill-rule="evenodd" fill-opacity="1"></path><path clip-path="url(#clip590)" d="M1781.51 1322.36 Q1778.09 1322.36 1776.1 1325.04 Q1774.11 1327.7 1774.11 1332.36 Q1774.11 1337.01 1776.07 1339.69 Q1778.06 1342.36 1781.51 1342.36 Q1784.92 1342.36 1786.91 1339.67 Q1788.9 1336.99 1788.9 1332.36 Q1788.9 1327.75 1786.91 1325.06 Q1784.92 1322.36 1781.51 1322.36 M1781.51 1318.75 Q1787.07 1318.75 1790.24 1322.36 Q1793.41 1325.97 1793.41 1332.36 Q1793.41 1338.72 1790.24 1342.36 Q1787.07 1345.97 1781.51 1345.97 Q1775.94 1345.97 1772.76 1342.36 Q1769.62 1338.72 1769.62 1332.36 Q1769.62 1325.97 1772.76 1322.36 Q1775.94 1318.75 1781.51 1318.75 Z" fill="#000000" fill-rule="evenodd" fill-opacity="1"></path><path clip-path="url(#clip590)" d="M1800.47 1309.28 L1804.73 1309.28 L1804.73 1345.3 L1800.47 1345.3 L1800.47 1309.28 Z" fill="#000000" fill-rule="evenodd" fill-opacity="1"></path><path clip-path="url(#clip590)" d="M1813.64 1319.37 L1817.9 1319.37 L1817.9 1345.3 L1813.64 1345.3 L1813.64 1319.37 M1813.64 1309.28 L1817.9 1309.28 L1817.9 1314.67 L1813.64 1314.67 L1813.64 1309.28 Z" fill="#000000" fill-rule="evenodd" fill-opacity="1"></path><path clip-path="url(#clip590)" d="M1845.47 1320.37 L1845.47 1324.35 Q1843.67 1323.35 1841.84 1322.87 Q1840.03 1322.36 1838.18 1322.36 Q1834.04 1322.36 1831.75 1325 Q1829.45 1327.61 1829.45 1332.36 Q1829.45 1337.1 1831.75 1339.74 Q1834.04 1342.36 1838.18 1342.36 Q1840.03 1342.36 1841.84 1341.87 Q1843.67 1341.36 1845.47 1340.37 L1845.47 1344.3 Q1843.69 1345.13 1841.77 1345.55 Q1839.87 1345.97 1837.72 1345.97 Q1831.86 1345.97 1828.41 1342.29 Q1824.96 1338.61 1824.96 1332.36 Q1824.96 1326.01 1828.43 1322.38 Q1831.93 1318.75 1838 1318.75 Q1839.96 1318.75 1841.84 1319.16 Q1843.71 1319.56 1845.47 1320.37 Z" fill="#000000" fill-rule="evenodd" fill-opacity="1"></path><path clip-path="url(#clip590)" d="M1863.67 1347.7 Q1861.86 1352.33 1860.15 1353.75 Q1858.43 1355.16 1855.56 1355.16 L1852.16 1355.16 L1852.16 1351.59 L1854.66 1351.59 Q1856.42 1351.59 1857.39 1350.76 Q1858.37 1349.93 1859.55 1346.82 L1860.31 1344.88 L1849.82 1319.37 L1854.34 1319.37 L1862.44 1339.65 L1870.54 1319.37 L1875.06 1319.37 L1863.67 1347.7 Z" fill="#000000" fill-rule="evenodd" fill-opacity="1"></path><path clip-path="url(#clip590)" d="M1896.19 1310.74 L1916.05 1310.74 L1916.05 1314.67 L1900.87 1314.67 L1900.87 1324.86 L1914.57 1324.86 L1914.57 1328.79 L1900.87 1328.79 L1900.87 1345.3 L1896.19 1345.3 L1896.19 1310.74 Z" fill="#000000" fill-rule="evenodd" fill-opacity="1"></path><path clip-path="url(#clip590)" d="M1920.24 1335.06 L1920.24 1319.37 L1924.5 1319.37 L1924.5 1334.9 Q1924.5 1338.58 1925.93 1340.44 Q1927.37 1342.26 1930.24 1342.26 Q1933.69 1342.26 1935.68 1340.06 Q1937.69 1337.87 1937.69 1334.07 L1937.69 1319.37 L1941.95 1319.37 L1941.95 1345.3 L1937.69 1345.3 L1937.69 1341.31 Q1936.14 1343.68 1934.08 1344.83 Q1932.05 1345.97 1929.34 1345.97 Q1924.87 1345.97 1922.55 1343.19 Q1920.24 1340.41 1920.24 1335.06 M1930.96 1318.75 L1930.96 1318.75 Z" fill="#000000" fill-rule="evenodd" fill-opacity="1"></path><path clip-path="url(#clip590)" d="M1972.28 1329.65 L1972.28 1345.3 L1968.02 1345.3 L1968.02 1329.79 Q1968.02 1326.11 1966.58 1324.28 Q1965.15 1322.45 1962.28 1322.45 Q1958.83 1322.45 1956.84 1324.65 Q1954.85 1326.85 1954.85 1330.64 L1954.85 1345.3 L1950.56 1345.3 L1950.56 1319.37 L1954.85 1319.37 L1954.85 1323.4 Q1956.37 1321.06 1958.43 1319.9 Q1960.52 1318.75 1963.23 1318.75 Q1967.69 1318.75 1969.99 1321.52 Q1972.28 1324.28 1972.28 1329.65 Z" fill="#000000" fill-rule="evenodd" fill-opacity="1"></path><path clip-path="url(#clip590)" d="M1999.43 1320.37 L1999.43 1324.35 Q1997.62 1323.35 1995.8 1322.87 Q1993.99 1322.36 1992.14 1322.36 Q1987.99 1322.36 1985.7 1325 Q1983.41 1327.61 1983.41 1332.36 Q1983.41 1337.1 1985.7 1339.74 Q1987.99 1342.36 1992.14 1342.36 Q1993.99 1342.36 1995.8 1341.87 Q1997.62 1341.36 1999.43 1340.37 L1999.43 1344.3 Q1997.65 1345.13 1995.73 1345.55 Q1993.83 1345.97 1991.67 1345.97 Q1985.82 1345.97 1982.37 1342.29 Q1978.92 1338.61 1978.92 1332.36 Q1978.92 1326.01 1982.39 1322.38 Q1985.89 1318.75 1991.95 1318.75 Q1993.92 1318.75 1995.8 1319.16 Q1997.67 1319.56 1999.43 1320.37 Z" fill="#000000" fill-rule="evenodd" fill-opacity="1"></path><path clip-path="url(#clip590)" d="M2011.05 1312.01 L2011.05 1319.37 L2019.82 1319.37 L2019.82 1322.68 L2011.05 1322.68 L2011.05 1336.75 Q2011.05 1339.93 2011.91 1340.83 Q2012.79 1341.73 2015.45 1341.73 L2019.82 1341.73 L2019.82 1345.3 L2015.45 1345.3 Q2010.52 1345.3 2008.64 1343.47 Q2006.77 1341.62 2006.77 1336.75 L2006.77 1322.68 L2003.64 1322.68 L2003.64 1319.37 L2006.77 1319.37 L2006.77 1312.01 L2011.05 1312.01 Z" fill="#000000" fill-rule="evenodd" fill-opacity="1"></path><path clip-path="url(#clip590)" d="M2025.42 1319.37 L2029.68 1319.37 L2029.68 1345.3 L2025.42 1345.3 L2025.42 1319.37 M2025.42 1309.28 L2029.68 1309.28 L2029.68 1314.67 L2025.42 1314.67 L2025.42 1309.28 Z" fill="#000000" fill-rule="evenodd" fill-opacity="1"></path><path clip-path="url(#clip590)" d="M2048.64 1322.36 Q2045.22 1322.36 2043.23 1325.04 Q2041.23 1327.7 2041.23 1332.36 Q2041.23 1337.01 2043.2 1339.69 Q2045.19 1342.36 2048.64 1342.36 Q2052.04 1342.36 2054.04 1339.67 Q2056.03 1336.99 2056.03 1332.36 Q2056.03 1327.75 2054.04 1325.06 Q2052.04 1322.36 2048.64 1322.36 M2048.64 1318.75 Q2054.2 1318.75 2057.37 1322.36 Q2060.54 1325.97 2060.54 1332.36 Q2060.54 1338.72 2057.37 1342.36 Q2054.2 1345.97 2048.64 1345.97 Q2043.06 1345.97 2039.89 1342.36 Q2036.74 1338.72 2036.74 1332.36 Q2036.74 1325.97 2039.89 1322.36 Q2043.06 1318.75 2048.64 1318.75 Z" fill="#000000" fill-rule="evenodd" fill-opacity="1"></path><path clip-path="url(#clip590)" d="M2089.15 1329.65 L2089.15 1345.3 L2084.89 1345.3 L2084.89 1329.79 Q2084.89 1326.11 2083.46 1324.28 Q2082.02 1322.45 2079.15 1322.45 Q2075.7 1322.45 2073.71 1324.65 Q2071.72 1326.85 2071.72 1330.64 L2071.72 1345.3 L2067.44 1345.3 L2067.44 1319.37 L2071.72 1319.37 L2071.72 1323.4 Q2073.25 1321.06 2075.31 1319.9 Q2077.39 1318.75 2080.1 1318.75 Q2084.57 1318.75 2086.86 1321.52 Q2089.15 1324.28 2089.15 1329.65 Z" fill="#000000" fill-rule="evenodd" fill-opacity="1"></path><path clip-path="url(#clip590)" d="M2121.81 1345.3 L2108.62 1310.74 L2113.5 1310.74 L2124.45 1339.83 L2135.42 1310.74 L2140.29 1310.74 L2127.11 1345.3 L2121.81 1345.3 Z" fill="#000000" fill-rule="evenodd" fill-opacity="1"></path><path clip-path="url(#clip590)" d="M2153.25 1332.26 Q2148.09 1332.26 2146.1 1333.44 Q2144.1 1334.63 2144.1 1337.47 Q2144.1 1339.74 2145.59 1341.08 Q2147.09 1342.4 2149.66 1342.4 Q2153.2 1342.4 2155.33 1339.9 Q2157.48 1337.38 2157.48 1333.21 L2157.48 1332.26 L2153.25 1332.26 M2161.74 1330.5 L2161.74 1345.3 L2157.48 1345.3 L2157.48 1341.36 Q2156.03 1343.72 2153.85 1344.86 Q2151.67 1345.97 2148.53 1345.97 Q2144.54 1345.97 2142.18 1343.75 Q2139.85 1341.5 2139.85 1337.75 Q2139.85 1333.38 2142.76 1331.15 Q2145.7 1328.93 2151.51 1328.93 L2157.48 1328.93 L2157.48 1328.51 Q2157.48 1325.57 2155.54 1323.98 Q2153.62 1322.36 2150.12 1322.36 Q2147.9 1322.36 2145.79 1322.89 Q2143.69 1323.42 2141.74 1324.49 L2141.74 1320.55 Q2144.08 1319.65 2146.28 1319.21 Q2148.48 1318.75 2150.56 1318.75 Q2156.19 1318.75 2158.97 1321.66 Q2161.74 1324.58 2161.74 1330.5 Z" fill="#000000" fill-rule="evenodd" fill-opacity="1"></path><path clip-path="url(#clip590)" d="M2170.52 1309.28 L2174.78 1309.28 L2174.78 1345.3 L2170.52 1345.3 L2170.52 1309.28 Z" fill="#000000" fill-rule="evenodd" fill-opacity="1"></path><path clip-path="url(#clip590)" d="M2183.25 1335.06 L2183.25 1319.37 L2187.51 1319.37 L2187.51 1334.9 Q2187.51 1338.58 2188.94 1340.44 Q2190.38 1342.26 2193.25 1342.26 Q2196.7 1342.26 2198.69 1340.06 Q2200.7 1337.87 2200.7 1334.07 L2200.7 1319.37 L2204.96 1319.37 L2204.96 1345.3 L2200.7 1345.3 L2200.7 1341.31 Q2199.15 1343.68 2197.09 1344.83 Q2195.05 1345.97 2192.34 1345.97 Q2187.88 1345.97 2185.56 1343.19 Q2183.25 1340.41 2183.25 1335.06 M2193.97 1318.75 L2193.97 1318.75 Z" fill="#000000" fill-rule="evenodd" fill-opacity="1"></path><path clip-path="url(#clip590)" d="M2235.91 1331.27 L2235.91 1333.35 L2216.33 1333.35 Q2216.6 1337.75 2218.97 1340.06 Q2221.35 1342.36 2225.59 1342.36 Q2228.04 1342.36 2230.33 1341.75 Q2232.65 1341.15 2234.91 1339.95 L2234.91 1343.98 Q2232.62 1344.95 2230.22 1345.46 Q2227.81 1345.97 2225.33 1345.97 Q2219.13 1345.97 2215.49 1342.36 Q2211.88 1338.75 2211.88 1332.59 Q2211.88 1326.22 2215.31 1322.5 Q2218.76 1318.75 2224.59 1318.75 Q2229.82 1318.75 2232.85 1322.13 Q2235.91 1325.48 2235.91 1331.27 M2231.65 1330.02 Q2231.6 1326.52 2229.68 1324.44 Q2227.78 1322.36 2224.64 1322.36 Q2221.07 1322.36 2218.92 1324.37 Q2216.79 1326.38 2216.47 1330.04 L2231.65 1330.02 Z" fill="#000000" fill-rule="evenodd" fill-opacity="1"></path></svg>